<svg width="185" height="98" viewBox="0 0 185 98" fill="none" xmlns="http://www.w3.org/2000/svg">
<g filter="url(#filter0_d_422_381)">
<path d="M26.1375 35.1505C25.7386 36.6817 25.2732 37.6692 24.7414 38.113C24.2096 38.5347 23.7664 38.7455 23.4118 38.7455C22.7249 38.7455 21.8939 38.3349 20.9189 37.5139C19.4563 36.1824 18.3484 34.3849 17.5949 32.1215C16.8415 29.858 16.3762 27.7387 16.1989 25.7637C15.9994 23.7887 15.8997 22.1577 15.8997 20.8706C15.8997 20.0496 15.933 19.2729 15.9994 18.5406C16.1546 16.0774 16.4537 14.402 16.8969 13.5143C17.3401 12.6267 18.0714 12.1829 19.0907 12.1829C20.243 12.2938 21.2291 12.7265 22.049 13.481C22.8911 14.2133 23.3564 15.1897 23.4451 16.4102C23.4451 17.7639 23.3232 19.2063 23.0794 20.7375C22.9686 21.5142 22.88 22.2687 22.8135 23.001C22.8135 23.0453 22.7914 23.5446 22.747 24.4989C22.7027 25.4309 22.6695 26.3074 22.6473 27.1285C22.6473 27.9274 22.6473 28.4932 22.6473 28.8261C22.6473 29.7581 22.6695 30.6458 22.7138 31.489C22.7803 32.6208 22.8911 33.3309 23.0462 33.6194C23.2013 33.9078 23.3343 34.0521 23.4451 34.0521C23.6445 34.0521 23.8883 33.7969 24.1763 33.2865C24.6195 32.2435 25.0184 30.6347 25.373 28.4599C25.7497 26.2852 26.1153 23.933 26.4699 21.4032C27.0239 17.1425 27.6222 13.6918 28.2648 11.0511C28.575 9.80842 29.0515 8.3771 29.6941 6.75716C30.3589 5.13721 31.068 4.04986 31.8214 3.49508C32.597 2.94031 33.2396 2.66292 33.7493 2.66292C34.5249 2.66292 35.4002 3.01797 36.3752 3.72809C37.8156 4.99297 38.7685 6.55744 39.2338 8.42148C39.6992 10.2633 39.9762 12.0941 40.0648 13.9138C40.2199 15.5559 40.3861 16.5323 40.5634 16.843C40.7407 17.1536 40.9069 17.309 41.062 17.309C41.2171 17.309 41.3833 17.198 41.5606 16.9761C41.9151 16.5545 42.3362 15.9109 42.8237 15.0455C43.422 13.9138 44.1422 12.7931 44.9842 11.6836C45.8485 10.5518 46.6351 9.87499 47.3442 9.65308C48.0755 9.40898 48.5962 9.28693 48.9065 9.28693C49.8372 9.28693 50.8565 9.70856 51.9645 10.5518C53.56 11.9277 54.4021 13.2369 54.4907 14.4796C54.5793 15.7001 54.6237 16.499 54.6237 16.8762C54.6237 18.6293 54.3688 20.449 53.8592 22.3352C53.2387 24.6209 52.5517 26.7401 51.7983 28.693C51.5324 29.4031 51.2997 30.0688 51.1003 30.6901C51.0781 30.7345 51.067 30.7789 51.067 30.8233C50.8233 31.489 50.4466 32.6651 49.9369 34.3517C49.4272 36.0382 49.0284 37.6137 48.7403 39.0783C48.4744 40.5207 48.3414 41.6414 48.3414 42.4403C48.3414 42.995 48.3857 43.4943 48.4744 43.9382C48.6295 44.6483 49.0062 45.0033 49.6045 45.0033C49.9147 45.0033 50.2915 44.9035 50.7346 44.7038C52.0642 43.9271 53.3052 42.296 54.4575 39.8106C55.6098 37.3031 56.6513 34.74 57.582 32.1215C58.3132 30.1687 58.9116 28.6819 59.3769 27.6611C59.8644 26.6181 60.2633 26.0966 60.5735 26.0966C60.64 26.0966 60.7176 26.1299 60.8062 26.1965C60.8505 26.263 60.8727 26.3629 60.8727 26.496C60.8727 26.9621 60.6732 27.8053 60.2744 29.0258C59.7869 30.6236 59.1442 32.4543 58.3465 34.5181C57.5487 36.5818 56.7842 38.4792 56.053 40.2101C55.3217 41.941 54.7899 43.0838 54.4575 43.6386C53.1944 45.6802 52.1418 46.7564 51.2997 46.8674C50.4577 46.9561 49.9812 47.0005 49.8704 47.0005C48.43 47.0005 47.0783 45.9797 45.8152 43.9382C44.9067 42.3404 44.4413 40.9979 44.4192 39.9105C44.4192 38.8231 44.4192 38.2351 44.4192 38.1463C44.4192 36.1269 44.6518 34.0188 45.1172 31.8219C45.6269 29.514 46.1919 27.2283 46.8124 24.9649C47.8317 21.5253 48.4854 18.4851 48.7735 15.8444V15.3451C48.7735 14.2577 48.5852 13.714 48.2085 13.714H48.142C47.6545 13.7806 47.0451 14.2688 46.3138 15.1786C45.5825 16.0885 44.8956 17.0538 44.253 18.0746C43.6325 19.0953 43.2225 19.8055 43.0231 20.2049C42.735 20.8262 42.3362 21.7694 41.8265 23.0342C41.3168 24.3657 40.7961 25.6417 40.2642 26.8622C39.7324 28.0827 39.3003 28.8594 38.9679 29.1922C38.702 29.392 38.4471 29.4918 38.2034 29.4918C37.9375 29.4918 37.6716 29.3698 37.4056 29.1257C36.9403 28.704 36.5303 28.1493 36.1758 27.4614C35.8434 26.7512 35.6218 26.1965 35.511 25.797C34.9792 23.9774 34.6024 22.1022 34.3808 20.1716C34.1814 18.2188 34.0263 16.266 33.9155 14.3132C33.8269 12.5601 33.6939 10.8403 33.5166 9.15378C33.3837 8.22176 33.1842 7.75575 32.9183 7.75575H32.8518C32.5194 7.86671 32.1649 8.26614 31.7882 8.95406C31.4115 9.64199 31.068 10.3521 30.7577 11.0844C30.4697 11.8167 30.2924 12.3049 30.2259 12.549C29.6498 14.4352 29.1955 16.3659 28.8631 18.3409C28.5529 20.3159 28.2759 22.313 28.0321 24.3324C27.6554 28.0161 27.0238 31.6222 26.1375 35.1505Z" fill="white"/>
<path d="M61.9363 11.7834C61.8699 11.384 61.8255 10.8958 61.8034 10.3188C61.8034 9.71965 61.8034 9.30912 61.8034 9.08721C61.8034 8.3771 61.8255 7.68918 61.8699 7.02345C61.9585 6.13581 62.1025 5.56994 62.302 5.32584C62.6344 5.08174 63.0332 4.95969 63.4986 4.95969C63.831 4.95969 64.1966 5.02626 64.5955 5.15941C65.5484 5.44789 66.2796 5.93609 66.7893 6.62401C67.299 7.31193 67.5538 7.97766 67.5538 8.6212C67.5538 9.04283 67.4652 9.49774 67.2879 9.98595C67.1992 10.2079 67.0109 10.6406 66.7228 11.2841C66.4569 11.9055 66.1688 12.5157 65.8586 13.1149C65.5705 13.714 65.3489 14.0691 65.1938 14.18C64.95 14.291 64.7174 14.3465 64.4958 14.3465C64.0526 14.3465 63.6205 14.1468 63.1994 13.7473C62.5568 13.1482 62.1358 12.4935 61.9363 11.7834ZM65.4265 21.7361C65.9583 22.6459 66.2242 23.6889 66.2242 24.865C66.2242 25.1091 66.2131 25.3532 66.191 25.5973C66.0359 27.0841 65.77 28.5487 65.3932 29.9911C65.216 30.79 65.0608 31.5334 64.9279 32.2213C64.7063 33.575 64.5955 34.6512 64.5955 35.4501C64.5955 35.8717 64.6287 36.2157 64.6952 36.482C64.8946 37.0811 65.227 37.3807 65.6924 37.3807H65.8918C66.6009 37.2698 67.2657 36.6817 67.8862 35.6165C68.5288 34.5514 69.105 33.342 69.6146 31.9883C70.1243 30.6347 70.5232 29.4585 70.8113 28.4599C70.8556 28.3712 70.8888 28.2935 70.911 28.2269C71.3985 26.8067 71.8195 26.0966 72.1741 26.0966H72.2073C72.4732 26.1188 72.6062 26.5182 72.6062 27.2949C72.6062 27.6056 72.584 27.9606 72.5397 28.3601C72.4068 29.6028 72.0411 31.2449 71.4428 33.2865C70.8445 35.3281 70.0246 37.1255 68.9831 38.6789C67.9638 40.2101 66.7339 40.9757 65.2935 40.9757H64.9944C63.3324 40.6428 61.9585 39.7108 60.8727 38.1796C59.7869 36.6262 59.0777 35.084 58.7454 33.5528C58.413 32.0882 58.2468 30.5459 58.2468 28.926C58.2468 28.4378 58.2578 27.9496 58.28 27.4614C58.3908 25.2866 58.834 23.3116 59.6096 21.5364C60.2522 20.2493 61.0167 19.6057 61.9031 19.6057C62.0582 19.6057 62.2244 19.6279 62.4017 19.6723C63.4875 19.9608 64.4958 20.6487 65.4265 21.7361Z" fill="white"/>
<path d="M71.1437 33.8524C70.5675 32.4987 70.224 31.134 70.1132 29.7581C70.0024 28.3823 69.947 27.3948 69.947 26.7956C69.947 25.5529 70.0689 24.4545 70.3127 23.5003C70.6672 22.4573 71.3653 21.9358 72.4068 21.9358C73.4483 21.9136 74.4455 22.2687 75.3983 23.001C76.3512 23.7333 76.883 24.6764 76.9938 25.8303C76.9938 26.5626 76.9716 27.3726 76.9273 28.2602C76.883 29.5029 76.8608 30.6679 76.8608 31.7553C76.8608 32.8649 76.9162 33.575 77.027 33.8856C77.16 34.1963 77.2819 34.3517 77.3927 34.3517C77.57 34.3517 77.8026 34.1297 78.0907 33.6859C78.5561 32.9758 79.2208 31.4446 80.0851 29.0924C80.3732 28.2935 80.6501 27.4946 80.9161 26.6958L81.7803 24.2326L81.8135 24.1327C82.0351 23.5114 82.3786 22.6681 82.8439 21.6029C83.3093 20.5378 83.819 19.5614 84.373 18.6737C84.9491 17.7639 85.5142 17.2313 86.0682 17.076C86.2454 17.0538 86.4338 17.0427 86.6332 17.0427C87.8077 17.0427 88.7938 17.4865 89.5916 18.3741C90.5444 19.3949 91.1316 20.571 91.3532 21.9025C91.5084 23.0786 91.5859 24.2548 91.5859 25.4309C91.5859 26.2298 91.5527 27.0286 91.4862 27.8275C91.3311 29.8247 91.0984 31.8108 90.7882 33.7858C90.3671 36.4487 90.1123 39.0783 90.0237 41.6747C90.0458 42.6289 90.2342 43.106 90.5887 43.106H90.6552C91.0541 43.0838 91.4973 42.5734 91.9848 41.5748C92.3393 40.8203 92.7715 39.7774 93.2811 38.4459C93.7908 37.0922 94.3337 35.6609 94.9099 34.1519C95.619 32.1991 96.2727 30.4571 96.871 28.926C97.4693 27.3948 97.846 26.5404 98.0011 26.3629C98.1562 26.1632 98.2449 26.0633 98.267 26.0633C98.3114 26.0633 98.3335 26.141 98.3335 26.2963C98.3335 26.607 98.2449 27.2283 98.0676 28.1604C97.5801 30.5126 96.9375 32.7428 96.1397 34.851C95.6301 36.2934 95.1425 37.8245 94.6772 39.4445C94.655 39.5554 94.6218 39.6886 94.5775 39.8439C94.3116 40.9535 93.9238 42.1629 93.4141 43.4722C92.9044 44.7814 92.3504 45.658 91.7521 46.1018C91.1538 46.5456 90.6441 46.7675 90.2231 46.7675C89.6026 46.7675 88.8824 46.4901 88.0625 45.9354C86.6886 44.848 85.7912 43.339 85.3701 41.4084C84.9491 39.4778 84.7386 37.5028 84.7386 35.4834V34.6179C84.8051 32.2657 84.938 30.0799 85.1375 28.0605C85.3147 26.3074 85.4034 24.9094 85.4034 23.8664C85.4034 22.9788 85.2261 22.535 84.8716 22.535C84.8272 22.535 84.7718 22.546 84.7054 22.5682C84.107 22.8789 83.5087 23.822 82.9104 25.3976C82.3343 26.9731 81.7692 28.7484 81.2152 30.7234C80.6612 32.6319 80.1072 34.3517 79.5532 35.8828C78.9992 37.3918 78.4342 38.3127 77.858 38.6456C77.437 38.8231 77.027 38.9119 76.6282 38.9119C76.0963 38.9119 75.5867 38.7677 75.0992 38.4792C74.2128 37.9466 73.4261 37.2365 72.7392 36.3488C72.0522 35.439 71.5204 34.6068 71.1437 33.8524Z" fill="white"/>
<path d="M114.953 44.8036C115.108 45.1365 115.297 45.3029 115.518 45.3029C115.607 45.3029 115.707 45.2807 115.817 45.2363C116.194 45.0588 116.582 44.7259 116.981 44.2377C117.38 43.7495 117.734 43.2613 118.045 42.7731C118.355 42.2849 118.543 41.9632 118.61 41.8078C118.942 41.1199 119.341 40.088 119.806 38.7122C120.272 37.3363 120.77 35.8385 121.302 34.2185C121.922 32.2879 122.499 30.557 123.03 29.0258C123.584 27.4724 123.994 26.5293 124.26 26.1965C124.371 26.1077 124.449 26.0633 124.493 26.0633C124.604 26.0633 124.659 26.1854 124.659 26.4295C124.659 26.5182 124.648 26.6403 124.626 26.7956C124.537 27.5279 124.327 28.5487 123.994 29.858C123.662 31.1672 123.274 32.5431 122.831 33.9855C122.41 35.4057 122.022 36.6817 121.668 37.8134C121.313 38.9452 121.069 39.6886 120.936 40.0436C120.604 41.0644 120.083 42.3293 119.374 43.8383C118.665 45.3251 117.9 46.4014 117.081 47.0671C116.283 47.7328 115.574 48.0657 114.953 48.0657C114.333 48.0657 113.679 47.8549 112.992 47.4332C111.53 46.2571 110.632 44.9479 110.3 43.5054C109.967 42.0408 109.801 40.665 109.801 39.3779C109.801 38.69 109.845 37.9688 109.934 37.2143C110.156 35.1505 110.466 33.109 110.865 31.0896C111.419 28.4489 111.707 26.141 111.729 24.166C111.685 23.3005 111.496 22.8678 111.164 22.8678H111.131C110.754 22.9122 110.322 23.2118 109.834 23.7666C109.369 24.2991 108.937 24.8761 108.538 25.4974C108.139 26.0966 107.884 26.5182 107.774 26.7623C107.352 27.6278 106.998 28.693 106.71 29.9578C106.444 31.2005 106.2 32.4321 105.979 33.6526C105.646 35.8274 105.281 37.3031 104.882 38.0797C104.616 38.4126 104.317 38.579 103.984 38.579C103.674 38.579 103.342 38.4237 102.987 38.113C102.256 37.4695 101.513 36.5264 100.76 35.2837C100.029 34.041 99.3861 32.8316 98.8321 31.6554C98.2781 30.4571 97.9236 29.625 97.7685 29.159C96.8378 26.5182 96.2616 24.055 96.04 21.7694C95.7962 19.4615 95.6744 17.7639 95.6744 16.6765C95.6744 14.3909 95.907 12.1496 96.3724 9.95266C97.0593 6.69058 98.4886 4.01657 100.66 1.93062C102.123 0.643539 103.541 0 104.915 0C105.137 0 105.369 0.022191 105.613 0.066573C107.186 0.332865 108.416 1.18722 109.303 2.62963C110.189 4.07205 110.632 5.75856 110.632 7.68918C110.632 7.99985 110.621 8.32162 110.599 8.65449C110.466 10.9845 109.568 13.4477 107.906 16.0441C107.375 16.7764 106.621 17.6418 105.646 18.6404C104.937 19.3505 104.306 20.0274 103.752 20.6709C103.22 21.3144 102.921 21.8359 102.854 22.2354C102.81 22.546 102.788 22.9788 102.788 23.5335C102.788 23.8886 102.799 24.288 102.821 24.7319C102.865 25.8414 102.965 26.9288 103.12 27.9939C103.297 29.0591 103.552 29.7692 103.885 30.1243C104.217 29.9246 104.56 29.4807 104.915 28.7928C105.269 28.0827 105.635 27.2394 106.012 26.263C106.61 24.7319 107.308 23.2451 108.106 21.8026C108.904 20.338 109.668 19.4171 110.399 19.0399C111.153 18.6404 111.751 18.4407 112.194 18.4407C113.014 18.4407 113.934 18.8069 114.953 19.5392C116.549 20.8484 117.446 22.2243 117.646 23.6667C117.867 25.1091 117.978 26.2741 117.978 27.1618C117.978 28.4489 117.856 29.7803 117.612 31.1562C117.191 33.4862 116.682 35.7164 116.083 37.8467C115.64 39.4001 115.319 40.6539 115.119 41.6081C114.942 42.5623 114.854 43.2946 114.854 43.805C114.854 44.1823 114.887 44.5151 114.953 44.8036ZM108.372 3.6948C108.062 3.40632 107.762 3.26208 107.474 3.26208C107.142 3.26208 106.81 3.4396 106.477 3.79466C105.835 4.46039 105.281 5.32584 104.815 6.39101C104.35 7.43398 104.051 8.22176 103.918 8.75435C103.807 9.15378 103.619 9.98595 103.353 11.2508C103.087 12.4935 102.909 13.5365 102.821 14.3798C102.754 15.2008 102.721 15.7667 102.721 16.0774C102.721 16.8541 102.843 17.4199 103.087 17.775C103.198 17.9303 103.342 18.008 103.519 18.008C103.918 18.008 104.494 17.6529 105.247 16.9428C106.089 16.0552 106.898 14.8125 107.674 13.2147C108.472 11.617 108.948 10.2855 109.103 9.22036C109.28 8.133 109.369 7.3785 109.369 6.95688C109.369 5.84733 109.136 4.89311 108.671 4.09424L108.372 3.6948Z" fill="white"/>
<path d="M137.656 23.234C137.678 23.0342 137.689 22.8567 137.689 22.7014C137.689 22.08 137.578 21.7472 137.357 21.7028H137.29C137.024 21.7028 136.714 21.9025 136.359 22.3019C135.983 22.7458 135.661 23.2007 135.395 23.6667C135.13 24.288 134.775 25.1646 134.332 26.2963C133.556 28.4045 132.659 30.5792 131.639 32.8205C130.62 35.0618 129.667 36.4376 128.781 36.948C128.382 37.1033 127.983 37.181 127.584 37.181C126.897 37.181 126.232 36.9369 125.59 36.4487C124.593 35.672 123.773 34.6512 123.13 33.3863C122.465 32.1215 122.089 30.9453 122 29.858V29.2588C122 27.7055 122.288 26.0633 122.864 24.3324C123.551 22.3796 124.438 20.9594 125.523 20.0718C126.631 19.1841 127.695 18.7403 128.714 18.7403C129.446 18.7403 130.232 18.9067 131.074 19.2396L131.739 19.5725L132.437 19.9053L133.135 20.3048C133.778 20.7264 134.21 20.9705 134.432 21.0371C134.675 21.1036 134.864 21.1369 134.997 21.1369C135.152 21.1369 135.285 21.0925 135.395 21.0038C135.595 20.8706 135.783 20.6709 135.961 20.4046C136.226 20.0052 136.67 19.5836 137.29 19.1397C137.844 18.9178 138.354 18.8069 138.819 18.8069C139.395 18.8069 139.905 18.9733 140.348 19.3062C141.168 19.9275 141.844 20.793 142.376 21.9025C142.952 23.7444 143.24 25.7083 143.24 27.7942C143.24 28.3934 143.218 29.0147 143.174 29.6583C142.952 32.4765 142.597 35.1505 142.11 37.6803C141.8 39.4334 141.6 40.7316 141.512 41.5748C141.423 42.4181 141.379 43.0061 141.379 43.339C141.379 44.0935 141.489 44.6816 141.711 45.1032C141.955 45.5026 142.232 45.7023 142.542 45.7023C142.874 45.7023 143.229 45.4915 143.606 45.0699C144.359 44.271 145.112 43.106 145.866 41.5748C146.642 40.0436 147.306 38.5901 147.86 37.2143C148.414 35.8163 148.758 34.9286 148.891 34.5514C148.913 34.507 149.046 34.0965 149.29 33.3198C149.533 32.5209 149.832 31.5778 150.187 30.4904C150.564 29.3809 150.929 28.349 151.284 27.3948C151.661 26.4184 151.927 25.797 152.082 25.5307C152.237 25.2423 152.337 25.098 152.381 25.098C152.447 25.098 152.481 25.2201 152.481 25.4642V25.6306C152.303 27.2505 151.794 29.5917 150.952 32.654C150.109 35.6942 149.123 38.6567 147.993 41.5415C146.885 44.4264 145.822 46.4568 144.802 47.633C143.805 48.6094 142.874 49.0976 142.01 49.0976C141.523 49.0976 141.057 48.9422 140.614 48.6316C139.373 47.7661 138.365 46.4236 137.589 44.6039C136.814 42.7842 136.315 41.2087 136.094 39.8772C135.916 38.6345 135.828 37.4251 135.828 36.249C135.828 35.4057 135.872 34.5736 135.961 33.7525C136.16 31.8219 136.459 29.8802 136.858 27.9274C137.146 26.4184 137.412 24.8539 137.656 23.234ZM131.806 21.8692C130.41 23.001 129.324 24.4767 128.548 26.2963C127.773 28.0938 127.385 29.8025 127.385 31.4224C127.385 31.6444 127.396 31.8663 127.418 32.0882C127.485 32.8649 127.684 33.2532 128.016 33.2532C128.061 33.2532 128.105 33.2421 128.149 33.2199C128.548 33.0646 129.014 32.5986 129.545 31.8219C130.099 31.023 130.642 30.1354 131.174 29.159C131.706 28.1604 132.16 27.2727 132.537 26.496C132.914 25.7194 133.124 25.2533 133.168 25.098C133.191 25.0536 133.213 24.9982 133.235 24.9316C133.457 24.4212 133.612 23.9663 133.7 23.5668C133.789 23.1674 133.833 22.8789 133.833 22.7014C133.833 22.3019 133.711 21.9469 133.468 21.6362C133.268 21.5475 133.08 21.5031 132.903 21.5031C132.814 21.5031 132.736 21.5142 132.67 21.5364C132.426 21.6029 132.182 21.6917 131.939 21.8026L131.806 21.8692Z" fill="white"/>
<path d="M14.2377 76.053C13.8389 77.5841 13.3735 78.5716 12.8417 79.0155C12.3099 79.4371 11.8667 79.6479 11.5121 79.6479C10.8252 79.6479 9.99418 79.2374 9.01916 78.4163C7.55662 77.0848 6.44864 75.2874 5.69521 73.0239C4.94178 70.7604 4.47643 68.6412 4.29915 66.6662C4.09972 64.6912 4 63.0601 4 61.7731C4 60.952 4.03324 60.1753 4.09972 59.443C4.25484 56.9798 4.55399 55.3044 4.99718 54.4167C5.44038 53.5291 6.17164 53.0853 7.19099 53.0853C8.34329 53.1962 9.32939 53.629 10.1493 54.3835C10.9914 55.1158 11.4567 56.0922 11.5454 57.3127C11.5454 58.6663 11.4235 60.1087 11.1797 61.6399C11.0689 62.4166 10.9803 63.1711 10.9138 63.9034C10.9138 63.9478 10.8916 64.4471 10.8473 65.4013C10.803 66.3333 10.7698 67.2099 10.7476 68.0309C10.7476 68.8298 10.7476 69.3957 10.7476 69.7285C10.7476 70.6606 10.7698 71.5482 10.8141 72.3914C10.8806 73.5232 10.9914 74.2333 11.1465 74.5218C11.3016 74.8103 11.4346 74.9545 11.5454 74.9545C11.7448 74.9545 11.9885 74.6993 12.2766 74.1889C12.7198 73.1459 13.1187 71.5371 13.4732 69.3624C13.85 67.1877 14.2156 64.8354 14.5701 62.3056C15.1241 58.045 15.7224 54.5943 16.3651 51.9535C16.6753 50.7109 17.1517 49.2795 17.7944 47.6596C18.4592 46.0396 19.1683 44.9523 19.9217 44.3975C20.6973 43.8427 21.3399 43.5654 21.8496 43.5654C22.6252 43.5654 23.5005 43.9204 24.4755 44.6305C25.9159 45.8954 26.8687 47.4599 27.3341 49.3239C27.7994 51.1658 28.0764 52.9965 28.1651 54.8162C28.3202 56.4583 28.4864 57.4347 28.6637 57.7454C28.8409 58.0561 29.0071 58.2114 29.1623 58.2114C29.3174 58.2114 29.4836 58.1005 29.6608 57.8785C30.0154 57.4569 30.4364 56.8134 30.9239 55.9479C31.5223 54.8162 32.2424 53.6955 33.0845 52.586C33.9487 51.4543 34.7354 50.7774 35.4445 50.5555C36.1758 50.3114 36.6965 50.1894 37.0068 50.1894C37.9375 50.1894 38.9568 50.611 40.0648 51.4543C41.6603 52.8301 42.5023 54.1394 42.591 55.3821C42.6796 56.6026 42.7239 57.4014 42.7239 57.7787C42.7239 59.5318 42.4691 61.3514 41.9594 63.2377C41.339 65.5233 40.652 67.6426 39.8986 69.5954C39.6327 70.3055 39.4 70.9712 39.2006 71.5926C39.1784 71.637 39.1673 71.6813 39.1673 71.7257C38.9236 72.3915 38.5469 73.5676 38.0372 75.2541C37.5275 76.9406 37.1286 78.5162 36.8406 79.9808C36.5746 81.4232 36.4417 82.5438 36.4417 83.3427C36.4417 83.8975 36.486 84.3968 36.5746 84.8406C36.7298 85.5507 37.1065 85.9058 37.7048 85.9058C38.015 85.9058 38.3917 85.8059 38.8349 85.6062C40.1645 84.8295 41.4054 83.1985 42.5577 80.7131C43.71 78.2055 44.7516 75.6424 45.6823 73.0239C46.4135 71.0711 47.0118 69.5843 47.4772 68.5635C47.9647 67.5205 48.3636 66.999 48.6738 66.999C48.7403 66.999 48.8178 67.0323 48.9065 67.0989C48.9508 67.1655 48.973 67.2653 48.973 67.3985C48.973 67.8645 48.7735 68.7077 48.3746 69.9283C47.8871 71.526 47.2445 73.3568 46.4468 75.4205C45.649 77.4843 44.8845 79.3816 44.1532 81.1125C43.422 82.8434 42.8901 83.9862 42.5577 84.541C41.2946 86.5826 40.2421 87.6589 39.4 87.7698C38.5579 87.8586 38.0815 87.903 37.9707 87.903C36.5303 87.903 35.1786 86.8822 33.9155 84.8406C33.0069 83.2428 32.5416 81.9003 32.5194 80.8129C32.5194 79.7256 32.5194 79.1375 32.5194 79.0487C32.5194 77.0294 32.7521 74.9212 33.2175 72.7243C33.7271 70.4164 34.2922 68.1308 34.9127 65.8673C35.932 62.4277 36.5857 59.3875 36.8738 56.7468V56.2475C36.8738 55.1601 36.6854 54.6165 36.3087 54.6165H36.2423C35.7547 54.683 35.1454 55.1712 34.4141 56.0811C33.6828 56.9909 32.9959 57.9562 32.3532 58.977C31.7328 59.9978 31.3228 60.7079 31.1234 61.1073C30.8353 61.7287 30.4364 62.6718 29.9268 63.9367C29.4171 65.2681 28.8963 66.5441 28.3645 67.7646C27.8327 68.9851 27.4006 69.7618 27.0682 70.0947C26.8023 70.2944 26.5474 70.3943 26.3037 70.3943C26.0377 70.3943 25.7718 70.2722 25.5059 70.0281C25.0406 69.6065 24.6306 69.0517 24.2761 68.3638C23.9437 67.6537 23.7221 67.0989 23.6113 66.6995C23.0794 64.8798 22.7027 63.0047 22.4811 61.074C22.2817 59.1212 22.1266 57.1684 22.0158 55.2156C21.9271 53.4625 21.7942 51.7427 21.6169 50.0562C21.4839 49.1242 21.2845 48.6582 21.0186 48.6582H20.9521C20.6197 48.7691 20.2652 49.1686 19.8885 49.8565C19.5117 50.5444 19.1683 51.2545 18.858 51.9868C18.57 52.7191 18.3927 53.2073 18.3262 53.4514C17.75 55.3377 17.2958 57.2683 16.9634 59.2433C16.6531 61.2183 16.3762 63.2155 16.1324 65.2349C15.7557 68.9186 15.1241 72.5246 14.2377 76.053Z" fill="white"/>
<path d="M62.0028 64.1364C62.025 63.9367 62.0361 63.7592 62.0361 63.6038C62.0361 62.9825 61.9253 62.6496 61.7037 62.6052H61.6372C61.3713 62.6052 61.061 62.8049 60.7065 63.2044C60.3298 63.6482 60.0085 64.1031 59.7425 64.5691C59.4766 65.1905 59.1221 66.067 58.6789 67.1988C57.9033 69.3069 57.0058 71.4816 55.9865 73.7229C54.9671 75.9642 54.0143 77.34 53.1279 77.8504C52.729 78.0058 52.3301 78.0834 51.9313 78.0834C51.2443 78.0834 50.5795 77.8393 49.9369 77.3511C48.9397 76.5745 48.1198 75.5537 47.4772 74.2888C46.8124 73.0239 46.4357 71.8478 46.347 70.7604V70.1613C46.347 68.6079 46.6351 66.9658 47.2113 65.2349C47.8982 63.282 48.7846 61.8618 49.8704 60.9742C50.9784 60.0865 52.0421 59.6427 53.0614 59.6427C53.7927 59.6427 54.5793 59.8092 55.4214 60.142L56.0862 60.4749L56.7842 60.8078L57.4823 61.2072C58.1249 61.6288 58.557 61.8729 58.7786 61.9395C59.0224 62.0061 59.2107 62.0394 59.3437 62.0394C59.4988 62.0394 59.6317 61.995 59.7425 61.9062C59.942 61.7731 60.1303 61.5733 60.3076 61.307C60.5735 60.9076 61.0167 60.486 61.6372 60.0422C62.1912 59.8203 62.7008 59.7093 63.1662 59.7093C63.7423 59.7093 64.252 59.8757 64.6952 60.2086C65.5151 60.8299 66.191 61.6954 66.7228 62.8049C67.299 64.6468 67.587 66.6107 67.587 68.6966C67.587 69.2958 67.5649 69.9172 67.5206 70.5607C67.299 73.3789 66.9444 76.053 66.4569 78.5827C66.1467 80.3358 65.9472 81.634 65.8586 82.4773C65.77 83.3205 65.7256 83.9086 65.7256 84.2414C65.7256 84.9959 65.8364 85.584 66.058 86.0056C66.3018 86.4051 66.5788 86.6048 66.889 86.6048C67.2214 86.6048 67.576 86.394 67.9527 85.9723C68.7061 85.1735 69.4595 84.0084 70.213 82.4773C70.9885 80.9461 71.6533 79.4926 72.2073 78.1167C72.7613 76.7187 73.1048 75.8311 73.2377 75.4538C73.2599 75.4094 73.3929 74.9989 73.6366 74.2222C73.8804 73.4233 74.1795 72.4802 74.5341 71.3929C74.9108 70.2833 75.2764 69.2514 75.631 68.2972C76.0077 67.3208 76.2736 66.6995 76.4287 66.4332C76.5839 66.1447 76.6836 66.0004 76.7279 66.0004C76.7944 66.0004 76.8276 66.1225 76.8276 66.3666V66.533C76.6503 68.153 76.1407 70.4941 75.2986 73.5565C74.4565 76.5966 73.4704 79.5591 72.3403 82.444C71.2323 85.3288 70.1686 87.3593 69.1493 88.5354C68.1521 89.5118 67.2214 90 66.3572 90C65.8697 90 65.4043 89.8447 64.9611 89.534C63.7202 88.6685 62.7119 87.326 61.9363 85.5063C61.1608 83.6867 60.6622 82.1111 60.4406 80.7796C60.2633 79.537 60.1746 78.3275 60.1746 77.1514C60.1746 76.3082 60.219 75.476 60.3076 74.6549C60.507 72.7243 60.8062 70.7826 61.2051 68.8298C61.4931 67.3208 61.7591 65.7563 62.0028 64.1364ZM56.1527 62.7717C54.7566 63.9034 53.6708 65.3791 52.8952 67.1988C52.1196 68.9962 51.7318 70.7049 51.7318 72.3249C51.7318 72.5468 51.7429 72.7687 51.7651 72.9906C51.8316 73.7673 52.031 74.1556 52.3634 74.1556C52.4077 74.1556 52.452 74.1445 52.4963 74.1223C52.8952 73.967 53.3606 73.501 53.8924 72.7243C54.4464 71.9254 54.9893 71.0378 55.5211 70.0614C56.053 69.0628 56.5072 68.1752 56.8839 67.3985C57.2607 66.6218 57.4712 66.1558 57.5155 66.0004C57.5377 65.9561 57.5598 65.9006 57.582 65.834C57.8036 65.3236 57.9587 64.8687 58.0473 64.4693C58.136 64.0698 58.1803 63.7813 58.1803 63.6038C58.1803 63.2044 58.0584 62.8493 57.8146 62.5387C57.6152 62.4499 57.4269 62.4055 57.2496 62.4055C57.1609 62.4055 57.0834 62.4166 57.0169 62.4388C56.7731 62.5054 56.5294 62.5941 56.2856 62.7051L56.1527 62.7717Z" fill="white"/>
<path d="M75.0327 58.5776C75.6531 57.7787 76.3623 57.3792 77.16 57.3792C77.4038 57.3792 77.6586 57.4125 77.9245 57.4791C79.0325 57.7898 79.9743 58.4444 80.7499 59.443C81.5476 60.4194 81.9465 61.4069 81.9465 62.4055V62.7051C81.9465 62.7938 81.9022 63.2709 81.8135 64.1364C81.7249 65.0018 81.6252 66.0448 81.5144 67.2653C81.4257 68.4636 81.3703 69.4179 81.3482 70.128C81.326 70.8159 81.3149 71.293 81.3149 71.5593C81.3149 72.225 81.3593 72.7354 81.4479 73.0905C81.5144 73.3346 81.603 73.4566 81.7138 73.4566C81.8246 73.4566 81.9686 73.3235 82.1459 73.0572C82.3454 72.6799 82.6113 71.9254 82.9437 70.7937C83.2761 69.6398 83.6306 68.3749 84.0073 66.999C84.6278 64.7134 85.1375 62.9936 85.5363 61.8396C85.9352 60.7301 86.4116 59.7648 86.9656 58.9437C87.5196 58.1226 88.0071 57.6899 88.4282 57.6455C88.8714 57.6012 89.1262 57.579 89.1927 57.579C89.9461 57.579 90.8436 58.0783 91.8851 59.0769C92.8823 60.1198 93.4806 60.9964 93.68 61.7065C93.8794 62.3944 93.9792 62.8826 93.9792 63.1711C93.9792 63.5705 93.8684 63.8479 93.6468 64.0033C93.5581 64.0698 93.4584 64.1031 93.3476 64.1031C92.9487 64.1031 92.3615 63.7037 91.5859 62.9048C91.4086 62.7051 91.2424 62.5165 91.0873 62.3389C90.4447 61.4957 89.9572 61.0297 89.6248 60.9409C89.3146 60.8521 89.1373 60.8078 89.093 60.8078C88.539 60.8078 87.9074 61.4402 87.1983 62.7051C86.5335 63.9922 85.9131 65.7231 85.3369 67.8978C84.7829 70.0725 84.2843 72.2028 83.8411 74.2888C83.5309 75.6202 83.265 76.752 83.0434 77.684C82.8218 78.616 82.6224 79.193 82.4451 79.4149C82.1792 79.77 81.8468 79.9475 81.4479 79.9475C81.3593 79.9475 81.2706 79.9364 81.182 79.9142C80.6945 79.8476 80.2069 79.659 79.7194 79.3483C79.2541 79.0155 78.8774 78.6826 78.5893 78.3497C76.6392 75.9753 75.4205 73.39 74.933 70.594C74.4454 67.7757 74.2017 65.6232 74.2017 64.1364C74.2017 62.117 74.4787 60.2641 75.0327 58.5776Z" fill="white"/>
<path d="M114.787 62.1725C114.676 62.0615 114.554 62.0061 114.421 62.0061C114.222 62.0061 114 62.1614 113.757 62.4721C113.402 62.9825 113.048 63.6593 112.693 64.5026C112.361 65.3458 112.072 66.1447 111.829 66.8992C111.607 67.6537 111.463 68.1419 111.397 68.3638C111.374 68.4969 111.33 68.6967 111.264 68.9629C111.175 69.429 111.053 69.9726 110.898 70.594C110.765 71.1931 110.61 71.7368 110.433 72.225C110.255 72.7132 110.056 73.0017 109.834 73.0905C109.724 73.1127 109.613 73.1238 109.502 73.1238C108.992 73.1238 108.483 72.802 107.973 72.1584C107.375 71.3818 106.843 70.5496 106.377 69.662C105.979 68.9075 105.646 68.386 105.38 68.0975C105.203 67.92 105.037 67.8312 104.882 67.8312C104.749 67.8312 104.638 67.8867 104.549 67.9976C104.328 68.2417 104.15 68.6079 104.017 69.0961C103.907 69.5621 103.818 69.9726 103.752 70.3277C103.729 70.4386 103.718 70.5274 103.718 70.594C103.63 71.0156 103.541 71.526 103.452 72.1252C103.275 73.5454 102.987 74.9989 102.588 76.4857C102.211 77.9503 101.802 78.7825 101.358 78.9822C100.915 79.1819 100.627 79.2818 100.494 79.2818C99.7628 79.2818 98.821 78.4607 97.6687 76.8186C95.6744 73.5787 94.6772 70.0725 94.6772 66.3V65.8007C94.7215 64.5358 94.9542 63.8368 95.3752 63.7037C95.7741 63.5483 96.0622 63.4707 96.2394 63.4707C96.7713 63.4707 97.4139 63.7148 98.1673 64.203C99.2531 64.8909 99.8736 65.5566 100.029 66.2002C100.206 66.8215 100.295 67.4207 100.295 67.9976C100.295 68.3305 100.272 68.6745 100.228 69.0295C100.206 69.4733 100.184 69.9504 100.162 70.4608C100.184 73.967 100.405 75.7201 100.826 75.7201C101.27 75.6757 101.846 74.078 102.555 70.9268C102.954 69.2181 103.319 67.4318 103.652 65.5677C104.006 63.6815 104.195 61.8618 104.217 60.1087C104.261 58.866 104.438 58.2114 104.749 58.1448C105.081 58.0561 105.303 58.0117 105.414 58.0117C105.879 58.0117 106.377 58.2336 106.909 58.6774C107.574 59.21 108.084 59.8203 108.438 60.5082C109.014 61.8618 109.391 63.2044 109.568 64.5358C109.701 65.3347 109.823 65.8673 109.934 66.1336C110.045 66.3999 110.145 66.533 110.233 66.533C110.344 66.533 110.488 66.411 110.665 66.1669C110.953 65.7231 111.397 64.7134 111.995 63.1378C111.995 63.0934 112.006 63.0601 112.028 63.0379C112.25 62.3944 112.593 61.5512 113.059 60.5082C113.524 59.4652 114.067 58.5443 114.687 57.7454C115.308 56.9465 115.995 56.5471 116.748 56.5471H116.815C117.945 56.7246 118.875 57.3681 119.607 58.4777C120.338 59.5872 120.77 60.6746 120.903 61.7398C120.925 62.0948 120.936 62.461 120.936 62.8382C120.936 64.1253 120.792 65.5788 120.504 67.1988C120.128 69.3291 119.706 71.4372 119.241 73.5232C118.864 75.1875 118.576 76.5412 118.377 77.5841C118.2 78.6271 118.111 79.4038 118.111 79.9142C118.111 80.1583 118.133 80.3691 118.177 80.5466C118.288 80.9461 118.443 81.1458 118.643 81.1458C118.798 81.1458 118.975 81.0348 119.175 80.8129C119.64 80.3247 120.172 79.4815 120.77 78.2832C121.368 77.0848 121.967 75.7756 122.565 74.3554C123.163 72.9129 123.695 71.5926 124.161 70.3943C124.737 68.9297 125.113 68.0309 125.291 67.6981C125.601 67.2099 125.845 66.9658 126.022 66.9658C126.066 66.9658 126.111 66.999 126.155 67.0656C126.221 67.1544 126.255 67.2986 126.255 67.4983C126.255 67.7202 126.21 68.0087 126.122 68.3638C125.878 69.3624 125.435 70.827 124.792 72.7576C124.149 74.666 123.451 76.5634 122.698 78.4496C121.967 80.3136 121.335 81.6673 120.803 82.5105C120.05 83.5535 119.297 84.075 118.543 84.075C118.366 84.075 118.189 84.0417 118.011 83.9752C117.081 83.6867 116.261 82.9987 115.552 81.9114C114.865 80.824 114.41 79.7367 114.189 78.6493C114.056 77.8726 113.989 76.9739 113.989 75.9531C113.989 75.3761 114.011 74.7659 114.056 74.1223C114.167 72.3249 114.322 70.5163 114.521 68.6966C114.676 67.2099 114.776 66.0559 114.82 65.2349C114.887 64.4138 114.92 63.8257 114.92 63.4707C114.92 62.9159 114.876 62.4832 114.787 62.1725Z" fill="white"/>
<path d="M127.285 52.6859C127.219 52.2864 127.174 51.7982 127.152 51.2212C127.152 50.6221 127.152 50.2116 127.152 49.9896C127.152 49.2795 127.174 48.5916 127.219 47.9259C127.307 47.0382 127.451 46.4724 127.651 46.2283C127.983 45.9842 128.382 45.8621 128.847 45.8621C129.18 45.8621 129.545 45.9287 129.944 46.0618C130.897 46.3503 131.628 46.8385 132.138 47.5264C132.648 48.2144 132.903 48.8801 132.903 49.5236C132.903 49.9453 132.814 50.4002 132.637 50.8884C132.548 51.1103 132.36 51.543 132.072 52.1866C131.806 52.8079 131.518 53.4182 131.207 54.0173C130.919 54.6165 130.698 54.9715 130.543 55.0825C130.299 55.1934 130.066 55.2489 129.845 55.2489C129.401 55.2489 128.969 55.0492 128.548 54.6498C127.906 54.0506 127.485 53.396 127.285 52.6859ZM130.775 62.6385C131.307 63.5483 131.573 64.5913 131.573 65.7674C131.573 66.0115 131.562 66.2556 131.54 66.4997C131.385 67.9865 131.119 69.4511 130.742 70.8936C130.565 71.6924 130.41 72.4358 130.277 73.1238C130.055 74.4774 129.944 75.5537 129.944 76.3525C129.944 76.7742 129.977 77.1181 130.044 77.3844C130.243 77.9836 130.576 78.2832 131.041 78.2832H131.241C131.95 78.1722 132.614 77.5841 133.235 76.519C133.878 75.4538 134.454 74.2444 134.963 72.8907C135.473 71.5371 135.872 70.361 136.16 69.3624C136.204 69.2736 136.238 69.1959 136.26 69.1294C136.747 67.7091 137.168 66.999 137.523 66.999H137.556C137.822 67.0212 137.955 67.4207 137.955 68.1973C137.955 68.508 137.933 68.8631 137.888 69.2625C137.756 70.5052 137.39 72.1473 136.792 74.1889C136.193 76.2305 135.373 78.028 134.332 79.5813C133.312 81.1125 132.083 81.8781 130.642 81.8781H130.343C128.681 81.5452 127.307 80.6132 126.221 79.082C125.136 77.5287 124.426 75.9864 124.094 74.4552C123.762 72.9906 123.595 71.4483 123.595 69.8284C123.595 69.3402 123.607 68.852 123.629 68.3638C123.74 66.1891 124.183 64.2141 124.958 62.4388C125.601 61.1517 126.365 60.5082 127.252 60.5082C127.407 60.5082 127.573 60.5304 127.75 60.5747C128.836 60.8632 129.845 61.5512 130.775 62.6385Z" fill="white"/>
<path d="M133.567 51.6207C132.858 51.7982 132.227 51.9425 131.673 52.0534C131.119 52.1644 130.775 52.2198 130.642 52.2198C130.31 52.2198 130 52.0978 129.712 51.8537C129.401 51.5874 129.191 51.2545 129.08 50.8551C129.014 50.6554 128.98 50.4778 128.98 50.3225C128.98 49.8343 129.235 49.4793 129.745 49.2573C130.033 49.1242 130.731 48.9467 131.839 48.7248C132.925 48.4807 134.199 48.2477 135.661 48.0257C136.592 47.8926 137.268 47.7373 137.689 47.5597C138.132 47.3822 138.431 47.1603 138.586 46.894C138.742 46.6277 138.863 46.2838 138.952 45.8621C139.041 45.3073 139.307 44.5529 139.75 43.5986C140.127 42.8885 140.636 42.5335 141.279 42.5335H141.379C142.043 42.5557 142.708 42.8109 143.373 43.2991C144.038 43.7651 144.558 44.2977 144.935 44.8968C145.068 45.0965 145.179 45.2852 145.268 45.4627C145.556 45.9287 145.799 46.2727 145.999 46.4946C146.198 46.6943 146.442 46.8052 146.73 46.8274C147.018 46.8496 147.306 46.8607 147.594 46.8607C147.905 46.8607 148.259 46.8496 148.658 46.8274H148.791C148.924 46.8052 149.622 46.772 150.885 46.7276C152.148 46.6832 153.577 46.6388 155.173 46.5944C156.791 46.55 158.187 46.5279 159.361 46.5279C160.558 46.5279 161.156 46.5833 161.156 46.6943C161.156 46.783 160.192 46.9495 158.264 47.1936C158.153 47.2158 158.02 47.238 157.865 47.2602C156.912 47.3711 155.516 47.5486 153.677 47.7927C151.86 48.0368 150.132 48.3142 148.492 48.6249C146.852 48.9134 145.844 49.1797 145.467 49.4238C145.068 49.9564 144.614 51.5319 144.104 54.1505C143.595 56.769 143.129 59.4874 142.708 62.3056C142.309 65.1239 142.054 67.0656 141.944 68.1308C141.877 68.8187 141.8 69.8617 141.711 71.2597C141.645 72.6356 141.611 73.8672 141.611 74.9545C141.611 75.7756 141.622 76.6188 141.645 77.4843C141.711 79.5037 141.966 81.2457 142.409 82.7103C142.852 84.1527 143.583 84.8961 144.603 84.9405C145.622 84.8517 146.52 84.1083 147.295 82.7103C148.071 81.29 148.736 79.5924 149.29 77.6174C149.866 75.6202 150.364 73.7118 150.785 71.8922C150.83 71.6259 150.885 71.3707 150.952 71.1266C151.661 68.3527 152.248 66.9658 152.713 66.9658C152.735 66.9658 152.769 66.9768 152.813 66.999C153.057 67.1322 153.179 67.5982 153.179 68.3971C153.179 69.1516 153.068 70.2056 152.846 71.5593C152.115 75.5093 151.262 78.6715 150.287 81.0459C149.312 83.3982 148.281 85.0958 147.195 86.1388C146.132 87.1596 145.101 87.6699 144.104 87.6699C142.664 87.6699 141.401 86.9709 140.315 85.5729C139.229 84.1527 138.343 82.2443 137.656 79.8476C136.991 77.4288 136.559 75.01 136.359 72.5912C136.138 70.1502 136.027 67.9643 136.027 66.0337C136.027 64.7245 136.06 63.4041 136.127 62.0726C136.171 61.651 136.249 60.9742 136.359 60.0422C136.47 59.088 136.592 58.0561 136.725 56.9465C136.902 55.6373 137.035 54.5166 137.124 53.5846C137.235 52.6526 137.29 52.0534 137.29 51.7871V51.654C137.202 51.3211 137.024 51.1436 136.758 51.1214C136.515 51.077 136.326 51.0548 136.193 51.0548C135.927 51.0548 135.628 51.0881 135.296 51.1547C134.83 51.2656 134.409 51.3766 134.033 51.4875C133.833 51.5541 133.678 51.5985 133.567 51.6207Z" fill="white"/>
<path d="M166.175 64.1364C166.197 63.9367 166.208 63.7592 166.208 63.6038C166.208 62.9825 166.098 62.6496 165.876 62.6052H165.81C165.544 62.6052 165.233 62.8049 164.879 63.2044C164.502 63.6482 164.181 64.1031 163.915 64.5691C163.649 65.1905 163.294 66.067 162.851 67.1988C162.076 69.3069 161.178 71.4816 160.159 73.7229C159.14 75.9642 158.187 77.34 157.3 77.8504C156.901 78.0058 156.503 78.0834 156.104 78.0834C155.417 78.0834 154.752 77.8393 154.109 77.3511C153.112 76.5745 152.292 75.5537 151.65 74.2888C150.985 73.0239 150.608 71.8478 150.519 70.7604V70.1613C150.519 68.6079 150.808 66.9658 151.384 65.2349C152.071 63.282 152.957 61.8618 154.043 60.9742C155.151 60.0865 156.214 59.6427 157.234 59.6427C157.965 59.6427 158.752 59.8092 159.594 60.142L160.259 60.4749L160.957 60.8078L161.655 61.2072C162.297 61.6288 162.729 61.8729 162.951 61.9395C163.195 62.0061 163.383 62.0394 163.516 62.0394C163.671 62.0394 163.804 61.995 163.915 61.9062C164.114 61.7731 164.303 61.5733 164.48 61.307C164.746 60.9076 165.189 60.486 165.81 60.0422C166.364 59.8203 166.873 59.7093 167.339 59.7093C167.915 59.7093 168.424 59.8757 168.868 60.2086C169.688 60.8299 170.363 61.6954 170.895 62.8049C171.471 64.6468 171.759 66.6107 171.759 68.6966C171.759 69.2958 171.737 69.9172 171.693 70.5607C171.471 73.3789 171.117 76.053 170.629 78.5827C170.319 80.3358 170.12 81.634 170.031 82.4773C169.942 83.3205 169.898 83.9086 169.898 84.2414C169.898 84.9959 170.009 85.584 170.23 86.0056C170.474 86.4051 170.751 86.6048 171.061 86.6048C171.394 86.6048 171.748 86.394 172.125 85.9723C172.879 85.1735 173.632 84.0084 174.385 82.4773C175.161 80.9461 175.826 79.4926 176.38 78.1167C176.934 76.7187 177.277 75.8311 177.41 75.4538C177.432 75.4094 177.565 74.9989 177.809 74.2222C178.053 73.4233 178.352 72.4802 178.706 71.3929C179.083 70.2833 179.449 69.2514 179.803 68.2972C180.18 67.3208 180.446 66.6995 180.601 66.4332C180.756 66.1447 180.856 66.0004 180.9 66.0004C180.967 66.0004 181 66.1225 181 66.3666V66.533C180.823 68.153 180.313 70.4941 179.471 73.5565C178.629 76.5966 177.643 79.5591 176.513 82.444C175.405 85.3288 174.341 87.3593 173.322 88.5354C172.325 89.5118 171.394 90 170.53 90C170.042 90 169.577 89.8447 169.134 89.534C167.893 88.6685 166.884 87.326 166.109 85.5063C165.333 83.6867 164.835 82.1111 164.613 80.7796C164.436 79.537 164.347 78.3275 164.347 77.1514C164.347 76.3082 164.391 75.476 164.48 74.6549C164.679 72.7243 164.979 70.7826 165.377 68.8298C165.666 67.3208 165.931 65.7563 166.175 64.1364ZM160.325 62.7717C158.929 63.9034 157.843 65.3791 157.068 67.1988C156.292 68.9962 155.904 70.7049 155.904 72.3249C155.904 72.5468 155.915 72.7687 155.937 72.9906C156.004 73.7673 156.203 74.1556 156.536 74.1556C156.58 74.1556 156.624 74.1445 156.669 74.1223C157.068 73.967 157.533 73.501 158.065 72.7243C158.619 71.9254 159.162 71.0378 159.694 70.0614C160.225 69.0628 160.68 68.1752 161.056 67.3985C161.433 66.6218 161.644 66.1558 161.688 66.0004C161.71 65.9561 161.732 65.9006 161.754 65.834C161.976 65.3236 162.131 64.8687 162.22 64.4693C162.308 64.0698 162.353 63.7813 162.353 63.6038C162.353 63.2044 162.231 62.8493 161.987 62.5387C161.788 62.4499 161.599 62.4055 161.422 62.4055C161.333 62.4055 161.256 62.4166 161.189 62.4388C160.946 62.5054 160.702 62.5941 160.458 62.7051L160.325 62.7717Z" fill="white"/>
</g>
<defs>
<filter id="filter0_d_422_381" x="0" y="0" width="185" height="98" filterUnits="userSpaceOnUse" color-interpolation-filters="sRGB">
<feFlood flood-opacity="0" result="BackgroundImageFix"/>
<feColorMatrix in="SourceAlpha" type="matrix" values="0 0 0 0 0 0 0 0 0 0 0 0 0 0 0 0 0 0 127 0" result="hardAlpha"/>
<feOffset dy="4"/>
<feGaussianBlur stdDeviation="2"/>
<feComposite in2="hardAlpha" operator="out"/>
<feColorMatrix type="matrix" values="0 0 0 0 1 0 0 0 0 1 0 0 0 0 1 0 0 0 0.4 0"/>
<feBlend mode="normal" in2="BackgroundImageFix" result="effect1_dropShadow_422_381"/>
<feBlend mode="normal" in="SourceGraphic" in2="effect1_dropShadow_422_381" result="shape"/>
</filter>
</defs>
</svg>
