<svg width="26" height="26" viewBox="0 0 26 26" fill="none" xmlns="http://www.w3.org/2000/svg">
<path d="M26 12.8281C26 5.75982 20.163 0 13 0C5.837 0 0 5.75982 0 12.8281C0 16.5482 1.625 19.8964 4.199 22.2439C4.199 22.2568 4.199 22.2568 4.186 22.2696C4.316 22.3979 4.472 22.5005 4.602 22.6159C4.68 22.6801 4.745 22.7442 4.823 22.7955C5.057 22.988 5.317 23.1675 5.564 23.3471C5.655 23.4113 5.733 23.4626 5.824 23.5267C6.071 23.6935 6.331 23.8474 6.604 23.9885C6.695 24.0399 6.799 24.104 6.89 24.1553C7.15 24.2964 7.423 24.4247 7.709 24.5402C7.813 24.5915 7.917 24.6428 8.021 24.6813C8.307 24.7967 8.593 24.8993 8.879 24.9891C8.983 25.0276 9.087 25.0661 9.191 25.0918C9.503 25.1816 9.815 25.2585 10.127 25.3355C10.218 25.3612 10.309 25.3868 10.413 25.3996C10.777 25.4766 11.141 25.5279 11.518 25.5664C11.57 25.5664 11.622 25.5792 11.674 25.5921C12.116 25.6305 12.558 25.6562 13 25.6562C13.442 25.6562 13.884 25.6305 14.313 25.5921C14.365 25.5921 14.417 25.5792 14.469 25.5664C14.846 25.5279 15.21 25.4766 15.574 25.3996C15.665 25.3868 15.756 25.3483 15.86 25.3355C16.172 25.2585 16.497 25.1944 16.796 25.0918C16.9 25.0533 17.004 25.0148 17.108 24.9891C17.394 24.8865 17.693 24.7967 17.966 24.6813C18.07 24.6428 18.174 24.5915 18.278 24.5402C18.551 24.4247 18.824 24.2964 19.097 24.1553C19.201 24.104 19.292 24.0399 19.383 23.9885C19.643 23.8346 19.903 23.6935 20.163 23.5267C20.254 23.4754 20.332 23.4113 20.423 23.3471C20.683 23.1675 20.93 22.988 21.164 22.7955C21.242 22.7314 21.307 22.6673 21.385 22.6159C21.528 22.5005 21.671 22.385 21.801 22.2696C21.801 22.2568 21.801 22.2568 21.788 22.2439C24.375 19.8964 26 16.5482 26 12.8281ZM19.422 19.2037C15.899 16.8689 10.127 16.8689 6.578 19.2037C6.006 19.5757 5.538 20.0118 5.148 20.4865C3.172 18.5109 1.95 15.8042 1.95 12.8281C1.95 6.81172 6.903 1.92421 13 1.92421C19.097 1.92421 24.05 6.81172 24.05 12.8281C24.05 15.8042 22.828 18.5109 20.852 20.4865C20.475 20.0118 19.994 19.5757 19.422 19.2037Z" fill="white"/>
<path d="M13 6.32385C10.309 6.32385 8.125 8.47897 8.125 11.1344C8.125 13.7385 10.192 15.8551 12.935 15.9321H13.052H13.143H13.169C15.795 15.8423 17.862 13.7385 17.875 11.1344C17.875 8.47897 15.691 6.32385 13 6.32385Z" fill="white"/>
</svg>
