<svg width="243" height="128" viewBox="0 0 243 128" fill="none" xmlns="http://www.w3.org/2000/svg">
<g filter="url(#filter0_d_124_27)">
<path d="M34.2412 47.1143C33.7139 49.1357 33.0986 50.4395 32.3955 51.0254C31.6924 51.582 31.1064 51.8604 30.6377 51.8604C29.7295 51.8604 28.6309 51.3184 27.3418 50.2344C25.4082 48.4766 23.9434 46.1035 22.9473 43.1152C21.9512 40.127 21.3359 37.3291 21.1016 34.7217C20.8379 32.1143 20.7061 29.9609 20.7061 28.2617C20.7061 27.1777 20.75 26.1523 20.8379 25.1855C21.043 21.9336 21.4385 19.7217 22.0244 18.5498C22.6104 17.3779 23.5771 16.792 24.9248 16.792C26.4482 16.9385 27.752 17.5098 28.8359 18.5059C29.9492 19.4727 30.5645 20.7617 30.6816 22.373C30.6816 24.1602 30.5205 26.0645 30.1982 28.0859C30.0518 29.1113 29.9346 30.1074 29.8467 31.0742C29.8467 31.1328 29.8174 31.792 29.7588 33.0518C29.7002 34.2822 29.6562 35.4395 29.627 36.5234C29.627 37.5781 29.627 38.3252 29.627 38.7646C29.627 39.9951 29.6562 41.167 29.7148 42.2803C29.8027 43.7744 29.9492 44.7119 30.1543 45.0928C30.3594 45.4736 30.5352 45.6641 30.6816 45.6641C30.9453 45.6641 31.2676 45.3271 31.6484 44.6533C32.2344 43.2764 32.7617 41.1523 33.2305 38.2812C33.7285 35.4102 34.2119 32.3047 34.6807 28.9648C35.4131 23.3398 36.2041 18.7842 37.0537 15.2979C37.4639 13.6572 38.0938 11.7676 38.9434 9.62891C39.8223 7.49023 40.7598 6.05469 41.7559 5.32227C42.7812 4.58984 43.6309 4.22363 44.3047 4.22363C45.3301 4.22363 46.4873 4.69238 47.7764 5.62988C49.6807 7.2998 50.9404 9.36523 51.5557 11.8262C52.1709 14.2578 52.5371 16.6748 52.6543 19.0771C52.8594 21.2451 53.0791 22.5342 53.3135 22.9443C53.5479 23.3545 53.7676 23.5596 53.9727 23.5596C54.1777 23.5596 54.3975 23.4131 54.6318 23.1201C55.1006 22.5635 55.6572 21.7139 56.3018 20.5713C57.0928 19.0771 58.0449 17.5977 59.1582 16.1328C60.3008 14.6387 61.3408 13.7451 62.2783 13.4521C63.2451 13.1299 63.9336 12.9688 64.3438 12.9688C65.5742 12.9688 66.9219 13.5254 68.3867 14.6387C70.4961 16.4551 71.6094 18.1836 71.7266 19.8242C71.8438 21.4355 71.9023 22.4902 71.9023 22.9883C71.9023 25.3027 71.5654 27.7051 70.8916 30.1953C70.0713 33.2129 69.1631 36.0107 68.167 38.5889C67.8154 39.5264 67.5078 40.4053 67.2441 41.2256C67.2148 41.2842 67.2002 41.3428 67.2002 41.4014C66.8779 42.2803 66.3799 43.833 65.7061 46.0596C65.0322 48.2861 64.5049 50.3662 64.124 52.2998C63.7725 54.2041 63.5967 55.6836 63.5967 56.7383C63.5967 57.4707 63.6553 58.1299 63.7725 58.7158C63.9775 59.6533 64.4756 60.1221 65.2666 60.1221C65.6768 60.1221 66.1748 59.9902 66.7607 59.7266C68.5186 58.7012 70.1592 56.5479 71.6826 53.2666C73.2061 49.9561 74.583 46.5723 75.8135 43.1152C76.7803 40.5371 77.5713 38.5742 78.1865 37.2266C78.8311 35.8496 79.3584 35.1611 79.7686 35.1611C79.8564 35.1611 79.959 35.2051 80.0762 35.293C80.1348 35.3809 80.1641 35.5127 80.1641 35.6885C80.1641 36.3037 79.9004 37.417 79.373 39.0283C78.7285 41.1377 77.8789 43.5547 76.8242 46.2793C75.7695 49.0039 74.7588 51.5088 73.792 53.7939C72.8252 56.0791 72.1221 57.5879 71.6826 58.3203C70.0127 61.0156 68.6211 62.4365 67.5078 62.583C66.3945 62.7002 65.7646 62.7588 65.6182 62.7588C63.7139 62.7588 61.9268 61.4111 60.2568 58.7158C59.0557 56.6064 58.4404 54.834 58.4111 53.3984C58.4111 51.9629 58.4111 51.1865 58.4111 51.0693C58.4111 48.4033 58.7188 45.6201 59.334 42.7197C60.0078 39.6729 60.7549 36.6553 61.5752 33.667C62.9229 29.126 63.7871 25.1123 64.168 21.626V20.9668C64.168 19.5312 63.9189 18.8135 63.4209 18.8135H63.333C62.6885 18.9014 61.8828 19.5459 60.916 20.7471C59.9492 21.9482 59.041 23.2227 58.1914 24.5703C57.3711 25.918 56.8291 26.8555 56.5654 27.3828C56.1846 28.2031 55.6572 29.4482 54.9834 31.1182C54.3096 32.876 53.6211 34.5605 52.918 36.1719C52.2148 37.7832 51.6436 38.8086 51.2041 39.248C50.8525 39.5117 50.5156 39.6436 50.1934 39.6436C49.8418 39.6436 49.4902 39.4824 49.1387 39.1602C48.5234 38.6035 47.9814 37.8711 47.5127 36.9629C47.0732 36.0254 46.7803 35.293 46.6338 34.7656C45.9307 32.3633 45.4326 29.8877 45.1396 27.3389C44.876 24.7607 44.6709 22.1826 44.5244 19.6045C44.4072 17.29 44.2314 15.0195 43.9971 12.793C43.8213 11.5625 43.5576 10.9473 43.2061 10.9473H43.1182C42.6787 11.0937 42.21 11.6211 41.7119 12.5293C41.2139 13.4375 40.7598 14.375 40.3496 15.3418C39.9688 16.3086 39.7344 16.9531 39.6465 17.2754C38.8848 19.7656 38.2842 22.3145 37.8447 24.9219C37.4346 27.5293 37.0684 30.166 36.7461 32.832C36.248 37.6953 35.4131 42.4561 34.2412 47.1143ZM81.5703 16.2646C81.4824 15.7373 81.4238 15.0928 81.3945 14.3311C81.3945 13.54 81.3945 12.998 81.3945 12.7051C81.3945 11.7676 81.4238 10.8594 81.4824 9.98047C81.5996 8.80859 81.79 8.06152 82.0537 7.73926C82.4932 7.41699 83.0205 7.25586 83.6357 7.25586C84.0752 7.25586 84.5586 7.34375 85.0859 7.51953C86.3457 7.90039 87.3125 8.54492 87.9863 9.45312C88.6602 10.3613 88.9971 11.2402 88.9971 12.0898C88.9971 12.6465 88.8799 13.2471 88.6455 13.8916C88.5283 14.1846 88.2793 14.7559 87.8984 15.6055C87.5469 16.4258 87.166 17.2314 86.7559 18.0225C86.375 18.8135 86.082 19.2822 85.877 19.4287C85.5547 19.5752 85.2471 19.6484 84.9541 19.6484C84.3682 19.6484 83.7969 19.3848 83.2402 18.8574C82.3906 18.0664 81.834 17.2021 81.5703 16.2646ZM86.1846 29.4043C86.8877 30.6055 87.2393 31.9824 87.2393 33.5352C87.2393 33.8574 87.2246 34.1797 87.1953 34.502C86.9902 36.4648 86.6387 38.3984 86.1406 40.3027C85.9062 41.3574 85.7012 42.3389 85.5254 43.2471C85.2324 45.0342 85.0859 46.4551 85.0859 47.5098C85.0859 48.0664 85.1299 48.5205 85.2178 48.8721C85.4814 49.6631 85.9209 50.0586 86.5361 50.0586H86.7998C87.7373 49.9121 88.6162 49.1357 89.4365 47.7295C90.2861 46.3232 91.0479 44.7266 91.7217 42.9395C92.3955 41.1523 92.9229 39.5996 93.3037 38.2812C93.3623 38.1641 93.4062 38.0615 93.4355 37.9736C94.0801 36.0986 94.6367 35.1611 95.1055 35.1611H95.1494C95.501 35.1904 95.6768 35.7178 95.6768 36.7432C95.6768 37.1533 95.6475 37.6221 95.5889 38.1494C95.4131 39.79 94.9297 41.958 94.1387 44.6533C93.3477 47.3486 92.2637 49.7217 90.8867 51.7725C89.5391 53.7939 87.9131 54.8047 86.0088 54.8047H85.6133C83.416 54.3652 81.5996 53.1348 80.1641 51.1133C78.7285 49.0625 77.791 47.0264 77.3516 45.0049C76.9121 43.0713 76.6924 41.0352 76.6924 38.8965C76.6924 38.252 76.707 37.6074 76.7363 36.9629C76.8828 34.0918 77.4688 31.4844 78.4941 29.1406C79.3438 27.4414 80.3545 26.5918 81.5264 26.5918C81.7314 26.5918 81.9512 26.6211 82.1855 26.6797C83.6211 27.0605 84.9541 27.9688 86.1846 29.4043ZM93.7432 45.4004C92.9814 43.6133 92.5273 41.8115 92.3809 39.9951C92.2344 38.1787 92.1611 36.875 92.1611 36.084C92.1611 34.4434 92.3223 32.9932 92.6445 31.7334C93.1133 30.3564 94.0361 29.668 95.4131 29.668C96.79 29.6387 98.1084 30.1074 99.3682 31.0742C100.628 32.041 101.331 33.2861 101.478 34.8096C101.478 35.7764 101.448 36.8457 101.39 38.0176C101.331 39.6582 101.302 41.1963 101.302 42.6318C101.302 44.0967 101.375 45.0342 101.521 45.4443C101.697 45.8545 101.858 46.0596 102.005 46.0596C102.239 46.0596 102.547 45.7666 102.928 45.1807C103.543 44.2432 104.422 42.2217 105.564 39.1162C105.945 38.0615 106.312 37.0068 106.663 35.9521L107.806 32.7002L107.85 32.5684C108.143 31.748 108.597 30.6348 109.212 29.2285C109.827 27.8223 110.501 26.5332 111.233 25.3613C111.995 24.1602 112.742 23.457 113.475 23.252C113.709 23.2227 113.958 23.208 114.222 23.208C115.774 23.208 117.078 23.7939 118.133 24.9658C119.393 26.3135 120.169 27.8662 120.462 29.624C120.667 31.1768 120.77 32.7295 120.77 34.2822C120.77 35.3369 120.726 36.3916 120.638 37.4463C120.433 40.083 120.125 42.7051 119.715 45.3125C119.158 48.8281 118.821 52.2998 118.704 55.7275C118.733 56.9873 118.982 57.6172 119.451 57.6172H119.539C120.066 57.5879 120.652 56.9141 121.297 55.5957C121.766 54.5996 122.337 53.2227 123.011 51.4648C123.685 49.6777 124.402 47.7881 125.164 45.7959C126.102 43.2178 126.966 40.918 127.757 38.8965C128.548 36.875 129.046 35.7471 129.251 35.5127C129.456 35.249 129.573 35.1172 129.603 35.1172C129.661 35.1172 129.69 35.2197 129.69 35.4248C129.69 35.835 129.573 36.6553 129.339 37.8857C128.694 40.9912 127.845 43.9355 126.79 46.7188C126.116 48.623 125.472 50.6445 124.856 52.7832C124.827 52.9297 124.783 53.1055 124.725 53.3105C124.373 54.7754 123.86 56.3721 123.187 58.1006C122.513 59.8291 121.78 60.9863 120.989 61.5723C120.198 62.1582 119.524 62.4512 118.968 62.4512C118.147 62.4512 117.195 62.085 116.111 61.3525C114.295 59.917 113.108 57.9248 112.552 55.376C111.995 52.8271 111.717 50.2197 111.717 47.5537V46.4111C111.805 43.3057 111.98 40.4199 112.244 37.7539C112.479 35.4395 112.596 33.5938 112.596 32.2168C112.596 31.0449 112.361 30.459 111.893 30.459C111.834 30.459 111.761 30.4736 111.673 30.5029C110.882 30.9131 110.091 32.1582 109.3 34.2383C108.538 36.3184 107.791 38.6621 107.059 41.2695C106.326 43.7891 105.594 46.0596 104.861 48.0811C104.129 50.0732 103.382 51.2891 102.62 51.7285C102.063 51.9629 101.521 52.0801 100.994 52.0801C100.291 52.0801 99.6172 51.8896 98.9727 51.5088C97.8008 50.8057 96.7607 49.8682 95.8525 48.6963C94.9443 47.4951 94.2412 46.3965 93.7432 45.4004ZM151.663 59.8584C151.868 60.2979 152.117 60.5176 152.41 60.5176C152.527 60.5176 152.659 60.4883 152.806 60.4297C153.304 60.1953 153.816 59.7559 154.344 59.1113C154.871 58.4668 155.34 57.8223 155.75 57.1777C156.16 56.5332 156.409 56.1084 156.497 55.9033C156.937 54.9951 157.464 53.6328 158.079 51.8164C158.694 50 159.354 48.0225 160.057 45.8838C160.877 43.335 161.639 41.0498 162.342 39.0283C163.074 36.9775 163.616 35.7324 163.968 35.293C164.114 35.1758 164.217 35.1172 164.275 35.1172C164.422 35.1172 164.495 35.2783 164.495 35.6006C164.495 35.7178 164.48 35.8789 164.451 36.084C164.334 37.0508 164.056 38.3984 163.616 40.127C163.177 41.8555 162.664 43.6719 162.078 45.5762C161.521 47.4512 161.009 49.1357 160.54 50.6299C160.071 52.124 159.749 53.1055 159.573 53.5742C159.134 54.9219 158.445 56.5918 157.508 58.584C156.57 60.5469 155.56 61.9678 154.476 62.8467C153.421 63.7256 152.483 64.165 151.663 64.165C150.843 64.165 149.979 63.8867 149.07 63.3301C147.137 61.7773 145.95 60.0488 145.511 58.1445C145.071 56.2109 144.852 54.3945 144.852 52.6953C144.852 51.7871 144.91 50.835 145.027 49.8389C145.32 47.1143 145.73 44.4189 146.258 41.7529C146.99 38.2666 147.371 35.2197 147.4 32.6123C147.342 31.4697 147.093 30.8984 146.653 30.8984H146.609C146.111 30.957 145.54 31.3525 144.896 32.085C144.28 32.7881 143.709 33.5498 143.182 34.3701C142.654 35.1611 142.317 35.7178 142.171 36.04C141.614 37.1826 141.146 38.5889 140.765 40.2588C140.413 41.8994 140.091 43.5254 139.798 45.1367C139.358 48.0078 138.875 49.9561 138.348 50.9814C137.996 51.4209 137.601 51.6406 137.161 51.6406C136.751 51.6406 136.312 51.4355 135.843 51.0254C134.876 50.1758 133.895 48.9307 132.898 47.29C131.932 45.6494 131.082 44.0527 130.35 42.5C129.617 40.918 129.148 39.8193 128.943 39.2041C127.713 35.7178 126.951 32.4658 126.658 29.4482C126.336 26.4014 126.175 24.1602 126.175 22.7246C126.175 19.707 126.482 16.748 127.098 13.8477C128.006 9.54102 129.896 6.01074 132.767 3.25684C134.7 1.55762 136.575 0.708008 138.392 0.708008C138.685 0.708008 138.992 0.737305 139.314 0.795898C141.395 1.14746 143.021 2.27539 144.192 4.17969C145.364 6.08398 145.95 8.31055 145.95 10.8594C145.95 11.2695 145.936 11.6943 145.906 12.1338C145.73 15.21 144.544 18.4619 142.347 21.8896C141.644 22.8564 140.647 23.999 139.358 25.3174C138.421 26.2549 137.586 27.1484 136.854 27.998C136.15 28.8477 135.755 29.5361 135.667 30.0635C135.608 30.4736 135.579 31.0449 135.579 31.7773C135.579 32.2461 135.594 32.7734 135.623 33.3594C135.682 34.8242 135.813 36.2598 136.019 37.666C136.253 39.0723 136.59 40.0098 137.029 40.4785C137.469 40.2148 137.923 39.6289 138.392 38.7207C138.86 37.7832 139.344 36.6699 139.842 35.3809C140.633 33.3594 141.556 31.3965 142.61 29.4922C143.665 27.5586 144.676 26.3428 145.643 25.8447C146.639 25.3174 147.43 25.0537 148.016 25.0537C149.1 25.0537 150.315 25.5371 151.663 26.5039C153.772 28.2324 154.959 30.0488 155.223 31.9531C155.516 33.8574 155.662 35.3955 155.662 36.5674C155.662 38.2666 155.501 40.0244 155.179 41.8408C154.622 44.917 153.948 47.8613 153.157 50.6738C152.571 52.7246 152.146 54.3799 151.883 55.6396C151.648 56.8994 151.531 57.8662 151.531 58.54C151.531 59.0381 151.575 59.4775 151.663 59.8584ZM142.962 5.58594C142.552 5.20508 142.156 5.01465 141.775 5.01465C141.336 5.01465 140.896 5.24902 140.457 5.71777C139.607 6.59668 138.875 7.73926 138.26 9.14551C137.645 10.5225 137.249 11.5625 137.073 12.2656C136.927 12.793 136.678 13.8916 136.326 15.5615C135.975 17.2021 135.74 18.5791 135.623 19.6924C135.535 20.7764 135.491 21.5234 135.491 21.9336C135.491 22.959 135.652 23.7061 135.975 24.1748C136.121 24.3799 136.312 24.4824 136.546 24.4824C137.073 24.4824 137.835 24.0137 138.831 23.0762C139.944 21.9043 141.014 20.2637 142.039 18.1543C143.094 16.0449 143.724 14.2871 143.929 12.8809C144.163 11.4453 144.28 10.4492 144.28 9.89258C144.28 8.42773 143.973 7.16797 143.357 6.11328L142.962 5.58594ZM181.678 31.3818C181.707 31.1182 181.722 30.8838 181.722 30.6787C181.722 29.8584 181.575 29.4189 181.282 29.3604H181.194C180.843 29.3604 180.433 29.624 179.964 30.1514C179.466 30.7373 179.041 31.3379 178.689 31.9531C178.338 32.7734 177.869 33.9307 177.283 35.4248C176.258 38.208 175.071 41.0791 173.724 44.0381C172.376 46.9971 171.116 48.8135 169.944 49.4873C169.417 49.6924 168.89 49.7949 168.362 49.7949C167.454 49.7949 166.575 49.4727 165.726 48.8281C164.407 47.8027 163.323 46.4551 162.474 44.7852C161.595 43.1152 161.097 41.5625 160.979 40.127V39.3359C160.979 37.2852 161.36 35.1172 162.122 32.832C163.03 30.2539 164.202 28.3789 165.638 27.207C167.103 26.0352 168.509 25.4492 169.856 25.4492C170.823 25.4492 171.863 25.6689 172.977 26.1084L173.855 26.5479L174.778 26.9873L175.701 27.5146C176.551 28.0713 177.122 28.3936 177.415 28.4814C177.737 28.5693 177.986 28.6133 178.162 28.6133C178.367 28.6133 178.543 28.5547 178.689 28.4375C178.953 28.2617 179.202 27.998 179.437 27.6465C179.788 27.1191 180.374 26.5625 181.194 25.9766C181.927 25.6836 182.601 25.5371 183.216 25.5371C183.978 25.5371 184.651 25.7568 185.237 26.1963C186.321 27.0166 187.215 28.1592 187.918 29.624C188.68 32.0557 189.061 34.6484 189.061 37.4023C189.061 38.1934 189.031 39.0137 188.973 39.8633C188.68 43.584 188.211 47.1143 187.566 50.4541C187.156 52.7686 186.893 54.4824 186.775 55.5957C186.658 56.709 186.6 57.4854 186.6 57.9248C186.6 58.9209 186.746 59.6973 187.039 60.2539C187.361 60.7812 187.728 61.0449 188.138 61.0449C188.577 61.0449 189.046 60.7666 189.544 60.21C190.54 59.1553 191.536 57.6172 192.532 55.5957C193.558 53.5742 194.437 51.6553 195.169 49.8389C195.901 47.9932 196.355 46.8213 196.531 46.3232C196.561 46.2646 196.736 45.7227 197.059 44.6973C197.381 43.6426 197.776 42.3975 198.245 40.9619C198.743 39.4971 199.227 38.1348 199.695 36.875C200.193 35.5859 200.545 34.7656 200.75 34.4141C200.955 34.0332 201.087 33.8428 201.146 33.8428C201.233 33.8428 201.277 34.0039 201.277 34.3262V34.5459C201.043 36.6846 200.369 39.7754 199.256 43.8184C198.143 47.832 196.839 51.7432 195.345 55.5518C193.88 59.3604 192.474 62.041 191.126 63.5938C189.808 64.8828 188.577 65.5273 187.435 65.5273C186.79 65.5273 186.175 65.3223 185.589 64.9121C183.948 63.7695 182.615 61.9971 181.59 59.5947C180.564 57.1924 179.905 55.1123 179.612 53.3545C179.378 51.7139 179.261 50.1172 179.261 48.5645C179.261 47.4512 179.319 46.3525 179.437 45.2686C179.7 42.7197 180.096 40.1562 180.623 37.5781C181.004 35.5859 181.355 33.5205 181.678 31.3818ZM173.943 29.5801C172.098 31.0742 170.662 33.0225 169.637 35.4248C168.611 37.7979 168.099 40.0537 168.099 42.1924C168.099 42.4854 168.113 42.7783 168.143 43.0713C168.23 44.0967 168.494 44.6094 168.934 44.6094C168.992 44.6094 169.051 44.5947 169.109 44.5654C169.637 44.3604 170.252 43.7451 170.955 42.7197C171.688 41.665 172.405 40.4932 173.108 39.2041C173.812 37.8857 174.412 36.7139 174.91 35.6885C175.408 34.6631 175.687 34.0479 175.745 33.8428C175.774 33.7842 175.804 33.7109 175.833 33.623C176.126 32.9492 176.331 32.3486 176.448 31.8213C176.565 31.2939 176.624 30.9131 176.624 30.6787C176.624 30.1514 176.463 29.6826 176.141 29.2725C175.877 29.1553 175.628 29.0967 175.394 29.0967C175.276 29.0967 175.174 29.1113 175.086 29.1406C174.764 29.2285 174.441 29.3457 174.119 29.4922L173.943 29.5801ZM18.5088 101.114C17.9814 103.136 17.3662 104.439 16.6631 105.025C15.96 105.582 15.374 105.86 14.9053 105.86C13.9971 105.86 12.8984 105.318 11.6094 104.234C9.67578 102.477 8.21094 100.104 7.21484 97.1152C6.21875 94.127 5.60352 91.3291 5.36914 88.7217C5.10547 86.1143 4.97363 83.9609 4.97363 82.2617C4.97363 81.1777 5.01758 80.1523 5.10547 79.1855C5.31055 75.9336 5.70605 73.7217 6.29199 72.5498C6.87793 71.3779 7.84473 70.792 9.19238 70.792C10.7158 70.9385 12.0195 71.5098 13.1035 72.5059C14.2168 73.4727 14.832 74.7617 14.9492 76.373C14.9492 78.1602 14.7881 80.0645 14.4658 82.0859C14.3193 83.1113 14.2021 84.1074 14.1143 85.0742C14.1143 85.1328 14.085 85.792 14.0264 87.0518C13.9678 88.2822 13.9238 89.4395 13.8945 90.5234C13.8945 91.5781 13.8945 92.3252 13.8945 92.7646C13.8945 93.9951 13.9238 95.167 13.9824 96.2803C14.0703 97.7744 14.2168 98.7119 14.4219 99.0928C14.627 99.4736 14.8027 99.6641 14.9492 99.6641C15.2129 99.6641 15.5352 99.3271 15.916 98.6533C16.502 97.2764 17.0293 95.1523 17.498 92.2812C17.9961 89.4102 18.4795 86.3047 18.9482 82.9648C19.6807 77.3398 20.4717 72.7842 21.3213 69.2979C21.7314 67.6572 22.3613 65.7676 23.2109 63.6289C24.0898 61.4902 25.0273 60.0547 26.0234 59.3223C27.0488 58.5898 27.8984 58.2236 28.5723 58.2236C29.5977 58.2236 30.7549 58.6924 32.0439 59.6299C33.9482 61.2998 35.208 63.3652 35.8232 65.8262C36.4385 68.2578 36.8047 70.6748 36.9219 73.0771C37.127 75.2451 37.3467 76.5342 37.5811 76.9443C37.8154 77.3545 38.0352 77.5596 38.2402 77.5596C38.4453 77.5596 38.665 77.4131 38.8994 77.1201C39.3682 76.5635 39.9248 75.7139 40.5693 74.5713C41.3604 73.0771 42.3125 71.5977 43.4258 70.1328C44.5684 68.6387 45.6084 67.7451 46.5459 67.4521C47.5127 67.1299 48.2012 66.9688 48.6113 66.9688C49.8418 66.9688 51.1895 67.5254 52.6543 68.6387C54.7637 70.4551 55.877 72.1836 55.9941 73.8242C56.1113 75.4355 56.1699 76.4902 56.1699 76.9883C56.1699 79.3027 55.833 81.7051 55.1592 84.1953C54.3389 87.2129 53.4307 90.0107 52.4346 92.5889C52.083 93.5264 51.7754 94.4053 51.5117 95.2256C51.4824 95.2842 51.4678 95.3428 51.4678 95.4014C51.1455 96.2803 50.6475 97.833 49.9736 100.06C49.2998 102.286 48.7725 104.366 48.3916 106.3C48.04 108.204 47.8643 109.684 47.8643 110.738C47.8643 111.471 47.9229 112.13 48.04 112.716C48.2451 113.653 48.7432 114.122 49.5342 114.122C49.9443 114.122 50.4424 113.99 51.0283 113.727C52.7861 112.701 54.4268 110.548 55.9502 107.267C57.4736 103.956 58.8506 100.572 60.0811 97.1152C61.0479 94.5371 61.8389 92.5742 62.4541 91.2266C63.0986 89.8496 63.626 89.1611 64.0361 89.1611C64.124 89.1611 64.2266 89.2051 64.3438 89.293C64.4023 89.3809 64.4316 89.5127 64.4316 89.6885C64.4316 90.3037 64.168 91.417 63.6406 93.0283C62.9961 95.1377 62.1465 97.5547 61.0918 100.279C60.0371 103.004 59.0264 105.509 58.0596 107.794C57.0928 110.079 56.3896 111.588 55.9502 112.32C54.2803 115.016 52.8887 116.437 51.7754 116.583C50.6621 116.7 50.0322 116.759 49.8857 116.759C47.9814 116.759 46.1943 115.411 44.5244 112.716C43.3232 110.606 42.708 108.834 42.6787 107.398C42.6787 105.963 42.6787 105.187 42.6787 105.069C42.6787 102.403 42.9863 99.6201 43.6016 96.7197C44.2754 93.6729 45.0225 90.6553 45.8428 87.667C47.1904 83.126 48.0547 79.1123 48.4355 75.626V74.9668C48.4355 73.5312 48.1865 72.8135 47.6885 72.8135H47.6006C46.9561 72.9014 46.1504 73.5459 45.1836 74.7471C44.2168 75.9482 43.3086 77.2227 42.459 78.5703C41.6387 79.918 41.0967 80.8555 40.833 81.3828C40.4521 82.2031 39.9248 83.4482 39.251 85.1182C38.5771 86.876 37.8887 88.5605 37.1855 90.1719C36.4824 91.7832 35.9111 92.8086 35.4717 93.248C35.1201 93.5117 34.7832 93.6436 34.4609 93.6436C34.1094 93.6436 33.7578 93.4824 33.4062 93.1602C32.791 92.6035 32.249 91.8711 31.7803 90.9629C31.3408 90.0254 31.0479 89.293 30.9014 88.7656C30.1982 86.3633 29.7002 83.8877 29.4072 81.3389C29.1436 78.7607 28.9385 76.1826 28.792 73.6045C28.6748 71.29 28.499 69.0195 28.2646 66.793C28.0889 65.5625 27.8252 64.9473 27.4736 64.9473H27.3857C26.9463 65.0938 26.4775 65.6211 25.9795 66.5293C25.4814 67.4375 25.0273 68.375 24.6172 69.3418C24.2363 70.3086 24.002 70.9531 23.9141 71.2754C23.1523 73.7656 22.5518 76.3145 22.1123 78.9219C21.7021 81.5293 21.3359 84.166 21.0137 86.832C20.5156 91.6953 19.6807 96.4561 18.5088 101.114ZM81.6582 85.3818C81.6875 85.1182 81.7021 84.8838 81.7021 84.6787C81.7021 83.8584 81.5557 83.4189 81.2627 83.3604H81.1748C80.8232 83.3604 80.4131 83.624 79.9443 84.1514C79.4463 84.7373 79.0215 85.3379 78.6699 85.9531C78.3184 86.7734 77.8496 87.9307 77.2637 89.4248C76.2383 92.208 75.0518 95.0791 73.7041 98.0381C72.3564 100.997 71.0967 102.813 69.9248 103.487C69.3975 103.692 68.8701 103.795 68.3428 103.795C67.4346 103.795 66.5557 103.473 65.7061 102.828C64.3877 101.803 63.3037 100.455 62.4541 98.7852C61.5752 97.1152 61.0771 95.5625 60.96 94.127V93.3359C60.96 91.2852 61.3408 89.1172 62.1025 86.832C63.0107 84.2539 64.1826 82.3789 65.6182 81.207C67.083 80.0352 68.4893 79.4492 69.8369 79.4492C70.8037 79.4492 71.8438 79.6689 72.957 80.1084L73.8359 80.5479L74.7588 80.9873L75.6816 81.5146C76.5312 82.0713 77.1025 82.3936 77.3955 82.4814C77.7178 82.5693 77.9668 82.6133 78.1426 82.6133C78.3477 82.6133 78.5234 82.5547 78.6699 82.4375C78.9336 82.2617 79.1826 81.998 79.417 81.6465C79.7686 81.1191 80.3545 80.5625 81.1748 79.9766C81.9072 79.6836 82.5811 79.5371 83.1963 79.5371C83.958 79.5371 84.6318 79.7568 85.2178 80.1963C86.3018 81.0166 87.1953 82.1592 87.8984 83.624C88.6602 86.0557 89.041 88.6484 89.041 91.4023C89.041 92.1934 89.0117 93.0137 88.9531 93.8633C88.6602 97.584 88.1914 101.114 87.5469 104.454C87.1367 106.769 86.873 108.482 86.7559 109.596C86.6387 110.709 86.5801 111.485 86.5801 111.925C86.5801 112.921 86.7266 113.697 87.0195 114.254C87.3418 114.781 87.708 115.045 88.1182 115.045C88.5576 115.045 89.0264 114.767 89.5244 114.21C90.5205 113.155 91.5166 111.617 92.5127 109.596C93.5381 107.574 94.417 105.655 95.1494 103.839C95.8818 101.993 96.3359 100.821 96.5117 100.323C96.541 100.265 96.7168 99.7227 97.0391 98.6973C97.3613 97.6426 97.7568 96.3975 98.2256 94.9619C98.7236 93.4971 99.207 92.1348 99.6758 90.875C100.174 89.5859 100.525 88.7656 100.73 88.4141C100.936 88.0332 101.067 87.8428 101.126 87.8428C101.214 87.8428 101.258 88.0039 101.258 88.3262V88.5459C101.023 90.6846 100.35 93.7754 99.2363 97.8184C98.123 101.832 96.8193 105.743 95.3252 109.552C93.8604 113.36 92.4541 116.041 91.1064 117.594C89.7881 118.883 88.5576 119.527 87.415 119.527C86.7705 119.527 86.1553 119.322 85.5693 118.912C83.9287 117.77 82.5957 115.997 81.5703 113.595C80.5449 111.192 79.8857 109.112 79.5928 107.354C79.3584 105.714 79.2412 104.117 79.2412 102.564C79.2412 101.451 79.2998 100.353 79.417 99.2686C79.6807 96.7197 80.0762 94.1562 80.6035 91.5781C80.9844 89.5859 81.3359 87.5205 81.6582 85.3818ZM73.9238 83.5801C72.0781 85.0742 70.6426 87.0225 69.6172 89.4248C68.5918 91.7979 68.0791 94.0537 68.0791 96.1924C68.0791 96.4854 68.0938 96.7783 68.123 97.0713C68.2109 98.0967 68.4746 98.6094 68.9141 98.6094C68.9727 98.6094 69.0312 98.5947 69.0898 98.5654C69.6172 98.3604 70.2324 97.7451 70.9355 96.7197C71.668 95.665 72.3857 94.4932 73.0889 93.2041C73.792 91.8857 74.3926 90.7139 74.8906 89.6885C75.3887 88.6631 75.667 88.0479 75.7256 87.8428C75.7549 87.7842 75.7842 87.7109 75.8135 87.623C76.1064 86.9492 76.3115 86.3486 76.4287 85.8213C76.5459 85.2939 76.6045 84.9131 76.6045 84.6787C76.6045 84.1514 76.4434 83.6826 76.1211 83.2725C75.8574 83.1553 75.6084 83.0967 75.374 83.0967C75.2568 83.0967 75.1543 83.1113 75.0664 83.1406C74.7441 83.2285 74.4219 83.3457 74.0996 83.4922L73.9238 83.5801ZM98.8848 78.043C99.7051 76.9883 100.643 76.4609 101.697 76.4609C102.02 76.4609 102.356 76.5049 102.708 76.5928C104.173 77.0029 105.418 77.8672 106.443 79.1855C107.498 80.4746 108.025 81.7783 108.025 83.0967V83.4922C108.025 83.6094 107.967 84.2393 107.85 85.3818C107.732 86.5244 107.601 87.9014 107.454 89.5127C107.337 91.0947 107.264 92.3545 107.234 93.292C107.205 94.2002 107.19 94.8301 107.19 95.1816C107.19 96.0605 107.249 96.7344 107.366 97.2031C107.454 97.5254 107.571 97.6865 107.718 97.6865C107.864 97.6865 108.055 97.5107 108.289 97.1592C108.553 96.6611 108.904 95.665 109.344 94.1709C109.783 92.6475 110.252 90.9775 110.75 89.1611C111.57 86.1436 112.244 83.873 112.771 82.3496C113.299 80.8848 113.929 79.6104 114.661 78.5264C115.394 77.4424 116.038 76.8711 116.595 76.8125C117.181 76.7539 117.518 76.7246 117.605 76.7246C118.602 76.7246 119.788 77.3838 121.165 78.7021C122.483 80.0791 123.274 81.2363 123.538 82.1738C123.802 83.082 123.934 83.7266 123.934 84.1074C123.934 84.6348 123.787 85.001 123.494 85.2061C123.377 85.2939 123.245 85.3379 123.099 85.3379C122.571 85.3379 121.795 84.8105 120.77 83.7559C120.535 83.4922 120.315 83.2432 120.11 83.0088C119.261 81.8955 118.616 81.2803 118.177 81.1631C117.767 81.0459 117.532 80.9873 117.474 80.9873C116.741 80.9873 115.906 81.8223 114.969 83.4922C114.09 85.1914 113.27 87.4766 112.508 90.3477C111.775 93.2188 111.116 96.0312 110.53 98.7852C110.12 100.543 109.769 102.037 109.476 103.268C109.183 104.498 108.919 105.26 108.685 105.553C108.333 106.021 107.894 106.256 107.366 106.256C107.249 106.256 107.132 106.241 107.015 106.212C106.37 106.124 105.726 105.875 105.081 105.465C104.466 105.025 103.968 104.586 103.587 104.146C101.009 101.012 99.3975 97.5986 98.7529 93.9072C98.1084 90.1865 97.7861 87.3447 97.7861 85.3818C97.7861 82.7158 98.1523 80.2695 98.8848 78.043ZM151.443 82.7891C151.297 82.6426 151.136 82.5693 150.96 82.5693C150.696 82.5693 150.403 82.7744 150.081 83.1846C149.612 83.8584 149.144 84.752 148.675 85.8652C148.235 86.9785 147.854 88.0332 147.532 89.0293C147.239 90.0254 147.049 90.6699 146.961 90.9629C146.932 91.1387 146.873 91.4023 146.785 91.7539C146.668 92.3691 146.507 93.0869 146.302 93.9072C146.126 94.6982 145.921 95.416 145.687 96.0605C145.452 96.7051 145.188 97.0859 144.896 97.2031C144.749 97.2324 144.603 97.2471 144.456 97.2471C143.782 97.2471 143.108 96.8223 142.435 95.9727C141.644 94.9473 140.94 93.8486 140.325 92.6768C139.798 91.6807 139.358 90.9922 139.007 90.6113C138.772 90.377 138.553 90.2598 138.348 90.2598C138.172 90.2598 138.025 90.333 137.908 90.4795C137.615 90.8018 137.381 91.2852 137.205 91.9297C137.059 92.5449 136.941 93.0869 136.854 93.5557C136.824 93.7021 136.81 93.8193 136.81 93.9072C136.692 94.4639 136.575 95.1377 136.458 95.9287C136.224 97.8037 135.843 99.7227 135.315 101.686C134.817 103.619 134.275 104.718 133.689 104.981C133.104 105.245 132.723 105.377 132.547 105.377C131.58 105.377 130.335 104.293 128.812 102.125C126.175 97.8477 124.856 93.2188 124.856 88.2383V87.5791C124.915 85.9092 125.223 84.9863 125.779 84.8105C126.307 84.6055 126.688 84.5029 126.922 84.5029C127.625 84.5029 128.475 84.8252 129.471 85.4697C130.906 86.3779 131.727 87.2568 131.932 88.1064C132.166 88.9268 132.283 89.7178 132.283 90.4795C132.283 90.9189 132.254 91.373 132.195 91.8418C132.166 92.4277 132.137 93.0576 132.107 93.7314C132.137 98.3604 132.43 100.675 132.986 100.675C133.572 100.616 134.334 98.5068 135.271 94.3467C135.799 92.0908 136.282 89.7324 136.722 87.2715C137.19 84.7812 137.439 82.3789 137.469 80.0645C137.527 78.4238 137.762 77.5596 138.172 77.4717C138.611 77.3545 138.904 77.2959 139.051 77.2959C139.666 77.2959 140.325 77.5889 141.028 78.1748C141.907 78.8779 142.581 79.6836 143.05 80.5918C143.812 82.3789 144.31 84.1514 144.544 85.9092C144.72 86.9639 144.881 87.667 145.027 88.0186C145.174 88.3701 145.306 88.5459 145.423 88.5459C145.569 88.5459 145.76 88.3848 145.994 88.0625C146.375 87.4766 146.961 86.1436 147.752 84.0635C147.752 84.0049 147.767 83.9609 147.796 83.9316C148.089 83.082 148.543 81.9688 149.158 80.5918C149.773 79.2148 150.491 77.999 151.312 76.9443C152.132 75.8896 153.04 75.3623 154.036 75.3623H154.124C155.618 75.5967 156.849 76.4463 157.815 77.9111C158.782 79.376 159.354 80.8115 159.529 82.2178C159.559 82.6865 159.573 83.1699 159.573 83.668C159.573 85.3672 159.383 87.2861 159.002 89.4248C158.504 92.2373 157.947 95.0205 157.332 97.7744C156.834 99.9717 156.453 101.759 156.189 103.136C155.955 104.513 155.838 105.538 155.838 106.212C155.838 106.534 155.867 106.812 155.926 107.047C156.072 107.574 156.277 107.838 156.541 107.838C156.746 107.838 156.98 107.691 157.244 107.398C157.859 106.754 158.562 105.641 159.354 104.059C160.145 102.477 160.936 100.748 161.727 98.873C162.518 96.9688 163.221 95.2256 163.836 93.6436C164.598 91.71 165.096 90.5234 165.33 90.084C165.74 89.4395 166.062 89.1172 166.297 89.1172C166.355 89.1172 166.414 89.1611 166.473 89.249C166.561 89.3662 166.604 89.5566 166.604 89.8203C166.604 90.1133 166.546 90.4941 166.429 90.9629C166.106 92.2812 165.521 94.2148 164.671 96.7637C163.821 99.2832 162.898 101.788 161.902 104.278C160.936 106.739 160.101 108.526 159.397 109.64C158.401 111.017 157.405 111.705 156.409 111.705C156.175 111.705 155.94 111.661 155.706 111.573C154.476 111.192 153.392 110.284 152.454 108.849C151.546 107.413 150.945 105.978 150.652 104.542C150.477 103.517 150.389 102.33 150.389 100.982C150.389 100.221 150.418 99.415 150.477 98.5654C150.623 96.1924 150.828 93.8047 151.092 91.4023C151.297 89.4395 151.429 87.916 151.487 86.832C151.575 85.748 151.619 84.9717 151.619 84.5029C151.619 83.7705 151.561 83.1992 151.443 82.7891ZM167.967 70.2646C167.879 69.7373 167.82 69.0928 167.791 68.3311C167.791 67.54 167.791 66.998 167.791 66.7051C167.791 65.7676 167.82 64.8594 167.879 63.9805C167.996 62.8086 168.187 62.0615 168.45 61.7393C168.89 61.417 169.417 61.2559 170.032 61.2559C170.472 61.2559 170.955 61.3438 171.482 61.5195C172.742 61.9004 173.709 62.5449 174.383 63.4531C175.057 64.3613 175.394 65.2402 175.394 66.0898C175.394 66.6465 175.276 67.2471 175.042 67.8916C174.925 68.1846 174.676 68.7559 174.295 69.6055C173.943 70.4258 173.562 71.2314 173.152 72.0225C172.771 72.8135 172.479 73.2822 172.273 73.4287C171.951 73.5752 171.644 73.6484 171.351 73.6484C170.765 73.6484 170.193 73.3848 169.637 72.8574C168.787 72.0664 168.23 71.2021 167.967 70.2646ZM172.581 83.4043C173.284 84.6055 173.636 85.9824 173.636 87.5352C173.636 87.8574 173.621 88.1797 173.592 88.502C173.387 90.4648 173.035 92.3984 172.537 94.3027C172.303 95.3574 172.098 96.3389 171.922 97.2471C171.629 99.0342 171.482 100.455 171.482 101.51C171.482 102.066 171.526 102.521 171.614 102.872C171.878 103.663 172.317 104.059 172.933 104.059H173.196C174.134 103.912 175.013 103.136 175.833 101.729C176.683 100.323 177.444 98.7266 178.118 96.9395C178.792 95.1523 179.319 93.5996 179.7 92.2812C179.759 92.1641 179.803 92.0615 179.832 91.9736C180.477 90.0986 181.033 89.1611 181.502 89.1611H181.546C181.897 89.1904 182.073 89.7178 182.073 90.7432C182.073 91.1533 182.044 91.6221 181.985 92.1494C181.81 93.79 181.326 95.958 180.535 98.6533C179.744 101.349 178.66 103.722 177.283 105.772C175.936 107.794 174.31 108.805 172.405 108.805H172.01C169.812 108.365 167.996 107.135 166.561 105.113C165.125 103.062 164.188 101.026 163.748 99.0049C163.309 97.0713 163.089 95.0352 163.089 92.8965C163.089 92.252 163.104 91.6074 163.133 90.9629C163.279 88.0918 163.865 85.4844 164.891 83.1406C165.74 81.4414 166.751 80.5918 167.923 80.5918C168.128 80.5918 168.348 80.6211 168.582 80.6797C170.018 81.0605 171.351 81.9688 172.581 83.4043ZM176.272 68.8584C175.335 69.0928 174.5 69.2832 173.768 69.4297C173.035 69.5762 172.581 69.6494 172.405 69.6494C171.966 69.6494 171.556 69.4883 171.175 69.166C170.765 68.8145 170.486 68.375 170.34 67.8477C170.252 67.584 170.208 67.3496 170.208 67.1445C170.208 66.5 170.545 66.0312 171.219 65.7383C171.6 65.5625 172.522 65.3281 173.987 65.0352C175.423 64.7129 177.107 64.4053 179.041 64.1123C180.271 63.9365 181.165 63.7314 181.722 63.4971C182.308 63.2627 182.703 62.9697 182.908 62.6182C183.113 62.2666 183.274 61.8125 183.392 61.2559C183.509 60.5234 183.86 59.5273 184.446 58.2676C184.944 57.3301 185.618 56.8613 186.468 56.8613H186.6C187.479 56.8906 188.357 57.2275 189.236 57.8721C190.115 58.4873 190.804 59.1904 191.302 59.9814C191.478 60.2451 191.624 60.4941 191.741 60.7285C192.122 61.3438 192.444 61.7979 192.708 62.0908C192.972 62.3545 193.294 62.501 193.675 62.5303C194.056 62.5596 194.437 62.5742 194.817 62.5742C195.228 62.5742 195.696 62.5596 196.224 62.5303H196.399C196.575 62.501 197.498 62.457 199.168 62.3984C200.838 62.3398 202.728 62.2812 204.837 62.2227C206.976 62.1641 208.821 62.1348 210.374 62.1348C211.956 62.1348 212.747 62.208 212.747 62.3545C212.747 62.4717 211.473 62.6914 208.924 63.0137C208.777 63.043 208.602 63.0723 208.396 63.1016C207.137 63.248 205.291 63.4824 202.859 63.8047C200.457 64.127 198.172 64.4932 196.004 64.9033C193.836 65.2842 192.503 65.6357 192.005 65.958C191.478 66.6611 190.877 68.7412 190.203 72.1982C189.529 75.6553 188.914 79.2441 188.357 82.9648C187.83 86.6855 187.493 89.249 187.347 90.6553C187.259 91.5635 187.156 92.9404 187.039 94.7861C186.951 96.6025 186.907 98.2285 186.907 99.6641C186.907 100.748 186.922 101.861 186.951 103.004C187.039 105.67 187.376 107.97 187.962 109.903C188.548 111.808 189.515 112.789 190.862 112.848C192.21 112.73 193.396 111.749 194.422 109.903C195.447 108.028 196.326 105.787 197.059 103.18C197.82 100.543 198.479 98.0234 199.036 95.6211C199.095 95.2695 199.168 94.9326 199.256 94.6104C200.193 90.9482 200.97 89.1172 201.585 89.1172C201.614 89.1172 201.658 89.1318 201.717 89.1611C202.039 89.3369 202.2 89.9521 202.2 91.0068C202.2 92.0029 202.054 93.3945 201.761 95.1816C200.794 100.396 199.666 104.571 198.377 107.706C197.088 110.812 195.726 113.053 194.29 114.43C192.884 115.777 191.521 116.451 190.203 116.451C188.299 116.451 186.629 115.528 185.193 113.683C183.758 111.808 182.586 109.288 181.678 106.124C180.799 102.931 180.228 99.7373 179.964 96.5439C179.671 93.3213 179.524 90.4355 179.524 87.8867C179.524 86.1582 179.568 84.415 179.656 82.6572C179.715 82.1006 179.817 81.207 179.964 79.9766C180.11 78.7168 180.271 77.3545 180.447 75.8896C180.682 74.1611 180.857 72.6816 180.975 71.4512C181.121 70.2207 181.194 69.4297 181.194 69.0781V68.9023C181.077 68.4629 180.843 68.2285 180.491 68.1992C180.169 68.1406 179.92 68.1113 179.744 68.1113C179.393 68.1113 178.997 68.1553 178.558 68.2432C177.942 68.3896 177.386 68.5361 176.888 68.6826C176.624 68.7705 176.419 68.8291 176.272 68.8584ZM219.383 85.3818C219.412 85.1182 219.427 84.8838 219.427 84.6787C219.427 83.8584 219.28 83.4189 218.987 83.3604H218.899C218.548 83.3604 218.138 83.624 217.669 84.1514C217.171 84.7373 216.746 85.3379 216.395 85.9531C216.043 86.7734 215.574 87.9307 214.988 89.4248C213.963 92.208 212.776 95.0791 211.429 98.0381C210.081 100.997 208.821 102.813 207.649 103.487C207.122 103.692 206.595 103.795 206.067 103.795C205.159 103.795 204.28 103.473 203.431 102.828C202.112 101.803 201.028 100.455 200.179 98.7852C199.3 97.1152 198.802 95.5625 198.685 94.127V93.3359C198.685 91.2852 199.065 89.1172 199.827 86.832C200.735 84.2539 201.907 82.3789 203.343 81.207C204.808 80.0352 206.214 79.4492 207.562 79.4492C208.528 79.4492 209.568 79.6689 210.682 80.1084L211.561 80.5479L212.483 80.9873L213.406 81.5146C214.256 82.0713 214.827 82.3936 215.12 82.4814C215.442 82.5693 215.691 82.6133 215.867 82.6133C216.072 82.6133 216.248 82.5547 216.395 82.4375C216.658 82.2617 216.907 81.998 217.142 81.6465C217.493 81.1191 218.079 80.5625 218.899 79.9766C219.632 79.6836 220.306 79.5371 220.921 79.5371C221.683 79.5371 222.356 79.7568 222.942 80.1963C224.026 81.0166 224.92 82.1592 225.623 83.624C226.385 86.0557 226.766 88.6484 226.766 91.4023C226.766 92.1934 226.736 93.0137 226.678 93.8633C226.385 97.584 225.916 101.114 225.271 104.454C224.861 106.769 224.598 108.482 224.48 109.596C224.363 110.709 224.305 111.485 224.305 111.925C224.305 112.921 224.451 113.697 224.744 114.254C225.066 114.781 225.433 115.045 225.843 115.045C226.282 115.045 226.751 114.767 227.249 114.21C228.245 113.155 229.241 111.617 230.237 109.596C231.263 107.574 232.142 105.655 232.874 103.839C233.606 101.993 234.061 100.821 234.236 100.323C234.266 100.265 234.441 99.7227 234.764 98.6973C235.086 97.6426 235.481 96.3975 235.95 94.9619C236.448 93.4971 236.932 92.1348 237.4 90.875C237.898 89.5859 238.25 88.7656 238.455 88.4141C238.66 88.0332 238.792 87.8428 238.851 87.8428C238.938 87.8428 238.982 88.0039 238.982 88.3262V88.5459C238.748 90.6846 238.074 93.7754 236.961 97.8184C235.848 101.832 234.544 105.743 233.05 109.552C231.585 113.36 230.179 116.041 228.831 117.594C227.513 118.883 226.282 119.527 225.14 119.527C224.495 119.527 223.88 119.322 223.294 118.912C221.653 117.77 220.32 115.997 219.295 113.595C218.27 111.192 217.61 109.112 217.317 107.354C217.083 105.714 216.966 104.117 216.966 102.564C216.966 101.451 217.024 100.353 217.142 99.2686C217.405 96.7197 217.801 94.1562 218.328 91.5781C218.709 89.5859 219.061 87.5205 219.383 85.3818ZM211.648 83.5801C209.803 85.0742 208.367 87.0225 207.342 89.4248C206.316 91.7979 205.804 94.0537 205.804 96.1924C205.804 96.4854 205.818 96.7783 205.848 97.0713C205.936 98.0967 206.199 98.6094 206.639 98.6094C206.697 98.6094 206.756 98.5947 206.814 98.5654C207.342 98.3604 207.957 97.7451 208.66 96.7197C209.393 95.665 210.11 94.4932 210.813 93.2041C211.517 91.8857 212.117 90.7139 212.615 89.6885C213.113 88.6631 213.392 88.0479 213.45 87.8428C213.479 87.7842 213.509 87.7109 213.538 87.623C213.831 86.9492 214.036 86.3486 214.153 85.8213C214.271 85.2939 214.329 84.9131 214.329 84.6787C214.329 84.1514 214.168 83.6826 213.846 83.2725C213.582 83.1553 213.333 83.0967 213.099 83.0967C212.981 83.0967 212.879 83.1113 212.791 83.1406C212.469 83.2285 212.146 83.3457 211.824 83.4922L211.648 83.5801Z" fill="#E56353"/>
</g>
<defs>
<filter id="filter0_d_124_27" x="0.973633" y="0.708008" width="242.009" height="126.819" filterUnits="userSpaceOnUse" color-interpolation-filters="sRGB">
<feFlood flood-opacity="0" result="BackgroundImageFix"/>
<feColorMatrix in="SourceAlpha" type="matrix" values="0 0 0 0 0 0 0 0 0 0 0 0 0 0 0 0 0 0 127 0" result="hardAlpha"/>
<feOffset dy="4"/>
<feGaussianBlur stdDeviation="2"/>
<feComposite in2="hardAlpha" operator="out"/>
<feColorMatrix type="matrix" values="0 0 0 0 1 0 0 0 0 1 0 0 0 0 1 0 0 0 0.4 0"/>
<feBlend mode="normal" in2="BackgroundImageFix" result="effect1_dropShadow_124_27"/>
<feBlend mode="normal" in="SourceGraphic" in2="effect1_dropShadow_124_27" result="shape"/>
</filter>
</defs>
</svg>
